<?xml version="1.0" encoding="utf-8"?><svg viewBox="0 0 512 512" xmlns="http://www.w3.org/2000/svg" xmlns:xlink="http://www.w3.org/1999/xlink"><style>:root>svg{display:none}:root>svg:target{display:block}</style><svg fill="none" viewBox="0 0 25 24" id="air" xmlns="http://www.w3.org/2000/svg"><path d="m23.768 10.45-.195-.102v-1.21a1.537 1.537 0 0 0-3.023-.379l-1.076-.563V7.089a1.537 1.537 0 0 0-3.003-.451l-1.394-.728v-.297A6.704 6.704 0 0 0 13.57.683l-.123-.154a1.59 1.59 0 0 0-2.367 0l-.123.144a6.702 6.702 0 0 0-1.476 4.93V5.9l-1.394.728a1.537 1.537 0 0 0-2.962.46v1.118L4.1 8.77a1.548 1.548 0 0 0-3.075.369v1.209l-.205.102A1.527 1.527 0 0 0 0 11.815v1.424a.512.512 0 0 0 .512.513h.072l9.573-1.363.492 4.95-4.674 2.337a1.527 1.527 0 0 0-.85 1.373v2.44a.513.513 0 0 0 .512.512h.164l5.34-1.783.133 1.322a.512.512 0 0 0 .513.461h1.025a.513.513 0 0 0 .512-.461l.133-1.353L18.797 24h.164a.512.512 0 0 0 .513-.512v-2.44a1.527 1.527 0 0 0-.851-1.373l-4.664-2.337.492-4.95 9.563 1.363h.072a.512.512 0 0 0 .512-.513v-1.424a1.537 1.537 0 0 0-.83-1.364ZM6.15 7.09a.512.512 0 0 1 1.025 0l-1.025.574v-.574Zm-4.1 2.05a.512.512 0 1 1 1.025 0v.133l-1.025.533v-.666Zm-1.025 3.505v-.83a.513.513 0 0 1 .266-.451l4.582-2.399.533-.276 3.218-1.681.43 4.356-9.029 1.28ZM6.15 22.77v-1.722a.513.513 0 0 1 .287-.461l4.335-2.163.277 2.727-4.9 1.62Zm12.012-2.193a.512.512 0 0 1 .287.461v1.732l-4.89-1.63.277-2.726 4.326 2.163ZM13.478 11.7l-1.179 11.274-1.127-11.274-.667-6.15a5.68 5.68 0 0 1 1.282-4.212l.123-.144a.512.512 0 0 1 .789 0l.123.154a5.677 5.677 0 0 1 1.27 4.202l-.614 6.15Zm8.045-2.562a.512.512 0 0 1 1.025 0v.666l-.379-.154-.646-.38V9.14Zm-4.1-2.05a.512.512 0 0 1 1.026 0v.574l-.277-.144-.748-.39v-.04Zm6.15 5.555-9.03-1.292.431-4.356 2.808 1.466.933.492 3.024 1.579 1.025.563.46.246a.512.512 0 0 1 .278.451l.071.85ZM11.787 3.5a.513.513 0 0 0 0 1.025h1.025a.513.513 0 0 0 0-1.025h-1.025Z"/></svg><svg fill="none" viewBox="0 0 512 512" id="arrow" xmlns="http://www.w3.org/2000/svg"><path d="m175 419 163-163L175 93" stroke="#000" stroke-width="24" stroke-linecap="round"/></svg><svg fill="none" viewBox="0 0 24 26" id="buses" xmlns="http://www.w3.org/2000/svg"><path d="M3.4 1h16.8v21.6H3.4V1Z"/><path d="M5.8 20.2h2.4m7.2 0h2.4M1 7V4.6h19.2M3.4 13l8.4 3.6 8.4-3.6H3.4Z"/><path d="M22.6 7V4.6H3.4L22.6 7ZM5.8 22.6v1.8L7 25l1.2-.6v-1.8H5.8Zm9.6 0v1.8l1.2.6 1.2-.6v-1.8h-2.4Z"/></svg><svg fill="none" viewBox="0 0 15 15" id="close" xmlns="http://www.w3.org/2000/svg"><path fill-rule="evenodd" clip-rule="evenodd" d="M15 1.5 13.5 0l-6 6-6-6L0 1.5l6 6-6 6L1.5 15l6-6 6 6 1.5-1.5-6-6 6-6Z" fill="#000"/></svg><svg fill="none" viewBox="0 0 24 18" id="excursions" xmlns="http://www.w3.org/2000/svg"><path d="M22.5 3h-3s-.867 0-1.5-1.5C17.677.737 17.328 0 16.5 0h-6C9.672 0 9.312.732 9 1.5 8.391 3 7.5 3 7.5 3H6a1.5 1.5 0 0 0-1.5-1.5H3A1.5 1.5 0 0 0 1.5 3 1.5 1.5 0 0 0 0 4.5v12A1.5 1.5 0 0 0 1.5 18h21a1.5 1.5 0 0 0 1.5-1.5v-12A1.5 1.5 0 0 0 22.5 3Zm0 13.5h-21v-6h6.825c.368 2.541 2.532 4.5 5.175 4.5 2.707 0 4.91-2.056 5.193-4.688H22.5V16.5ZM9.75 9.75A3.754 3.754 0 0 1 13.5 6a3.754 3.754 0 0 1 3.75 3.75 3.755 3.755 0 0 1-3.75 3.75 3.755 3.755 0 0 1-3.75-3.75ZM18.675 9c-.367-2.541-2.532-4.5-5.175-4.5S8.693 6.459 8.325 9H1.5V4.5h6c.876 0 2.16-.638 2.889-2.436.125-.304.209-.473.264-.564h5.688c.1.165.23.47.277.583C17.59 4.383 19.19 4.5 19.5 4.5h3V9h-3.825ZM3 6.765a.75.75 0 1 0 1.5 0 .75.75 0 0 0-1.5 0Z"/></svg><svg viewBox="0 0 27 24" id="hotel" xmlns="http://www.w3.org/2000/svg"><path class="ffill" d="M23.81 9.429h-2.858V8.57c0-.682-.3-1.336-.837-1.818A3.026 3.026 0 0 0 18.096 6h-.952c-.758 0-1.485.27-2.02.753-.536.482-.837 1.136-.837 1.818v.858H12.38V8.57c0-.682-.301-1.336-.837-1.818A3.026 3.026 0 0 0 9.524 6H8.57c-.757 0-1.484.27-2.02.753-.536.482-.837 1.136-.837 1.818v.858H3.81V2.57c0-.227.1-.445.278-.606.18-.16.421-.25.674-.25h17.143c.252 0 .495.09.673.25.179.161.28.38.28.606v5.015c0 .227.1.445.278.606.179.16.42.25.674.25.252 0 .494-.09.673-.25a.816.816 0 0 0 .279-.606V2.57c0-.682-.301-1.336-.837-1.818A3.026 3.026 0 0 0 21.905 0H4.762c-.758 0-1.485.27-2.02.753-.536.482-.837 1.136-.837 1.818v7.012a2.846 2.846 0 0 0-1.378.937A2.4 2.4 0 0 0 0 12v3.429c0 .227.1.445.279.606.179.16.42.25.673.25H15.41c.253 0 .495-.09.674-.25a.816.816 0 0 0 .279-.606c0-.228-.1-.446-.279-.607a1.009 1.009 0 0 0-.673-.25H1.904V12c0-.227.1-.445.279-.606.178-.16.42-.251.673-.251H23.81c.253 0 .495.09.674.25.179.162.279.38.279.607v2.571h-4.038c-.253 0-.495.09-.674.252a.816.816 0 0 0-.279.606c0 .227.1.445.28.606.178.16.42.25.673.25h4.038v2.572c0 .227-.1.445-.279.606-.179.161-.42.251-.674.251H2.857c-.252 0-.495-.09-.673-.25a.816.816 0 0 1-.28-.607v-.514c0-.227-.1-.445-.278-.606a1.008 1.008 0 0 0-.674-.251c-.252 0-.494.09-.673.25a.816.816 0 0 0-.279.607v.514c0 .682.301 1.336.837 1.818a3.026 3.026 0 0 0 2.02.754H23.81c.757 0 1.484-.271 2.02-.754.536-.482.837-1.136.837-1.818V12c0-.682-.301-1.336-.837-1.818a3.026 3.026 0 0 0-2.02-.753Zm-16.19 0V8.57c-.001-.227.1-.445.278-.606.179-.16.42-.25.673-.25h.953c.252 0 .495.09.673.25.179.161.28.38.28.606v.858H7.618Zm8.57 0V8.57c0-.227.1-.445.28-.606.178-.16.42-.25.673-.25h.952c.253 0 .495.09.674.25.178.161.279.38.279.606v.858H16.19ZM6.668 22.286h-3.81c-.252 0-.495.09-.673.25a.816.816 0 0 0-.28.607c0 .227.101.445.28.606.178.16.42.251.673.251h3.81c.252 0 .495-.09.673-.251a.816.816 0 0 0 .279-.606c0-.227-.1-.445-.279-.606a1.008 1.008 0 0 0-.673-.251Zm17.142 0H20c-.253 0-.495.09-.673.25a.816.816 0 0 0-.28.607c0 .227.101.445.28.606.178.16.42.251.673.251h3.81c.252 0 .494-.09.673-.251a.816.816 0 0 0 .279-.606c0-.227-.1-.445-.279-.606a1.009 1.009 0 0 0-.674-.251Z"/></svg><svg fill="none" viewBox="0 0 24 24" id="railway" xmlns="http://www.w3.org/2000/svg"><path clip-rule="evenodd" d="M.5 24a.498.498 0 0 0 .39-.186l1.073-1.332h20.074l1.074 1.332a.5.5 0 1 0 .778-.628l-5.04-6.255a2.495 2.495 0 0 0 1.75-2.373V2.5c0-1.378-1.121-2.5-2.5-2.5H5.901a2.503 2.503 0 0 0-2.5 2.5v12.058c0 1.116.74 2.052 1.75 2.373l-5.04 6.255A.5.5 0 0 0 .499 24Zm2.268-2.518 1.77-2.195h14.925l1.769 2.195H2.768Zm2.575-3.195.99-1.229h11.334l.99 1.229H5.343Zm-.442-7.732a.5.5 0 0 1-.5-.5v-4.78a.5.5 0 0 1 .5-.5H11.5v5.78H4.9Zm7.599-5.78h6.6a.5.5 0 0 1 .5.5v4.78a.5.5 0 0 1-.5.5h-6.6v-5.78ZM5.9 1h12.2c.827 0 1.5.673 1.5 1.5v1.367a1.482 1.482 0 0 0-.5-.092H4.9c-.175 0-.342.036-.5.092V2.5c0-.827.674-1.5 1.5-1.5ZM4.4 14.558v-3.095l.035.012.066.023c.211.069.445.068 2.982.06 2.023-.007 5.51-.018 11.616-.003.177 0 .343-.036.5-.092v3.095c0 .828-.672 1.5-1.5 1.5H5.901c-.827 0-1.5-.672-1.5-1.5ZM9.784 2.753h4.433a.5.5 0 1 0 0-1H9.783a.5.5 0 1 0 0 1ZM9.124 13.86c0 .827-.672 1.5-1.5 1.5-.827 0-1.5-.673-1.5-1.5s.673-1.5 1.5-1.5c.828 0 1.5.673 1.5 1.5Zm-1 0a.5.5 0 1 0-1 0 .5.5 0 0 0 1 0Zm9.75 0c0 .827-.672 1.5-1.5 1.5-.827 0-1.5-.673-1.5-1.5s.673-1.5 1.5-1.5c.828 0 1.5.673 1.5 1.5Zm-1 0a.5.5 0 1 0-1 0 .5.5 0 0 0 1 0Z"/></svg><svg fill="none" viewBox="0 0 42 18" id="rating-trigon" xmlns="http://www.w3.org/2000/svg"><path d="M21 18 0 0h42L21 18Z"/></svg><svg fill="none" viewBox="0 0 24 26" id="tour" xmlns="http://www.w3.org/2000/svg"><path d="M1.111 9.885h21.39M17.13 14.572h.01M11.806 14.572h.01M6.47 14.572h.01M17.13 19.235h.01M11.806 19.235h.01M6.47 19.235h.01M16.652 1v3.95M6.959 1v3.95M16.886 2.895H6.726C3.2 2.895 1 4.858 1 8.467v10.86C1 22.99 3.201 25 6.725 25h10.15c3.535 0 5.725-1.974 5.725-5.583V8.467c.011-3.609-2.179-5.572-5.714-5.572Z"/></svg></svg>