<svg xmlns="http://www.w3.org/2000/svg" width="26" height="25" viewBox="0 0 26 25" fill="none">
  <path d="M24.3022 10.9505L24.1075 10.848V9.63857C24.1041 9.26642 23.9658 8.90815 23.7182 8.63023C23.4707 8.35231 23.1308 8.17361 22.7615 8.1273C22.3922 8.08098 22.0187 8.17019 21.7102 8.37837C21.4017 8.58655 21.1792 8.89957 21.084 9.25935L20.0078 8.69564V7.58872C20.0047 7.2228 19.8712 6.86998 19.6312 6.59369C19.3913 6.31739 19.0607 6.13575 18.6988 6.08141C18.3369 6.02706 17.9675 6.10358 17.657 6.29721C17.3465 6.49084 17.1152 6.78888 17.0048 7.13775L15.6109 6.41006V6.11283C15.6975 5.23233 15.609 4.34338 15.3504 3.49726C15.0918 2.65113 14.6683 1.86457 14.1042 1.18294L13.9812 1.0292C13.8322 0.862702 13.6498 0.72951 13.4458 0.638322C13.2418 0.547133 13.0209 0.5 12.7974 0.5C12.574 0.5 12.3531 0.547133 12.1491 0.638322C11.9451 0.72951 11.7627 0.862702 11.6137 1.0292L11.4907 1.17269C10.932 1.85668 10.5141 2.64432 10.2608 3.49036C10.0075 4.33639 9.92389 5.22414 10.0148 6.10258V6.39981L8.62087 7.12751C8.49207 6.8039 8.25719 6.53362 7.95472 6.36093C7.65224 6.18824 7.30009 6.12338 6.95594 6.17697C6.61179 6.23056 6.29603 6.39942 6.06038 6.6559C5.82473 6.91238 5.68315 7.24127 5.65884 7.58872V8.70589L4.63391 9.2696C4.58498 8.86186 4.37608 8.49026 4.05317 8.23654C3.73026 7.98282 3.31978 7.86777 2.91204 7.9167C2.5043 7.96563 2.13269 8.17453 1.87897 8.49744C1.62526 8.82035 1.51021 9.23083 1.55914 9.63857V10.848L1.35415 10.9505C1.10543 11.0804 0.897321 11.2764 0.752677 11.5169C0.608032 11.7573 0.532444 12.033 0.53421 12.3136V13.7383C0.53421 13.8742 0.588201 14.0045 0.684307 14.1006C0.780412 14.1967 0.910759 14.2507 1.04667 14.2507H1.11842L10.6912 12.8876L11.1832 17.838L6.50953 20.1748C6.2535 20.3013 6.03808 20.497 5.8877 20.7398C5.73733 20.9826 5.65804 21.2626 5.65884 21.5482V23.9875C5.65884 24.1234 5.71283 24.2538 5.80893 24.3499C5.90504 24.446 6.03539 24.5 6.1713 24.5H6.33529L11.6752 22.7166L11.8084 24.0388C11.8211 24.1656 11.8807 24.2832 11.9755 24.3684C12.0702 24.4537 12.1934 24.5006 12.3209 24.5H13.3458C13.4733 24.5006 13.5964 24.4537 13.6912 24.3684C13.7859 24.2832 13.8455 24.1656 13.8582 24.0388L13.9915 22.6859L19.3313 24.5H19.4953C19.6312 24.5 19.7616 24.446 19.8577 24.3499C19.9538 24.2538 20.0078 24.1234 20.0078 23.9875V21.5482C20.0086 21.2626 19.9293 20.9826 19.7789 20.7398C19.6286 20.497 19.4131 20.3013 19.1571 20.1748L14.4937 17.838L14.9857 12.8876L24.5482 14.2507H24.62C24.7559 14.2507 24.8862 14.1967 24.9823 14.1006C25.0784 14.0045 25.1324 13.8742 25.1324 13.7383V12.3136C25.1321 12.0322 25.0545 11.7562 24.9081 11.5159C24.7617 11.2755 24.5521 11.0799 24.3022 10.9505ZM6.68376 7.58872C6.68376 7.45281 6.73776 7.32246 6.83386 7.22636C6.92997 7.13025 7.06031 7.07626 7.19623 7.07626C7.33214 7.07626 7.46249 7.13025 7.55859 7.22636C7.6547 7.32246 7.70869 7.45281 7.70869 7.58872L6.68376 8.16268V7.58872ZM2.58406 9.63857C2.58406 9.50266 2.63805 9.37231 2.73416 9.27621C2.83026 9.1801 2.96061 9.12611 3.09652 9.12611C3.23244 9.12611 3.36278 9.1801 3.45889 9.27621C3.555 9.37231 3.60899 9.50266 3.60899 9.63857V9.77181L2.58406 10.3048V9.63857ZM1.55914 13.1438V12.3136C1.55888 12.2214 1.5835 12.1309 1.6304 12.0515C1.6773 11.9722 1.74474 11.9069 1.82562 11.8627L6.40703 9.46434L6.93999 9.18761L10.1583 7.50673L10.5887 11.8627L1.55914 13.1438ZM6.68376 23.2701V21.5482C6.68357 21.4522 6.71037 21.358 6.76112 21.2764C6.81186 21.1949 6.88449 21.1293 6.97074 21.087L11.3062 18.9244L11.5829 21.6507L6.68376 23.2701ZM18.6959 21.0767C18.7821 21.119 18.8548 21.1846 18.9055 21.2662C18.9563 21.3477 18.9831 21.4419 18.9829 21.538V23.2701L14.094 21.6404L14.3707 18.9141L18.6959 21.0767ZM14.012 12.2009L12.8333 23.4751L11.7059 12.2009L11.0397 6.05133C10.962 5.29926 11.0353 4.53924 11.2554 3.81588C11.4754 3.09251 11.8376 2.42037 12.3209 1.83889L12.4438 1.6954C12.4919 1.63737 12.5522 1.59066 12.6204 1.5586C12.6886 1.52653 12.7631 1.50991 12.8384 1.50991C12.9138 1.50991 12.9882 1.52653 13.0565 1.5586C13.1247 1.59066 13.185 1.63737 13.233 1.6954L13.356 1.84914C13.8362 2.43016 14.1958 3.10097 14.414 3.82244C14.6322 4.54391 14.7046 5.3016 14.6269 6.05133L14.012 12.2009ZM22.0576 9.63857C22.0576 9.50266 22.1116 9.37231 22.2077 9.27621C22.3038 9.1801 22.4342 9.12611 22.5701 9.12611C22.706 9.12611 22.8364 9.1801 22.9325 9.27621C23.0286 9.37231 23.0826 9.50266 23.0826 9.63857V10.3048L22.7033 10.151L22.0576 9.77181V9.63857ZM17.9579 7.58872C17.9579 7.45281 18.0119 7.32246 18.108 7.22636C18.2041 7.13025 18.3345 7.07626 18.4704 7.07626C18.6063 7.07626 18.7367 7.13025 18.8328 7.22636C18.9289 7.32246 18.9829 7.45281 18.9829 7.58872V8.16268L18.7061 8.01919L17.9579 7.62972V7.58872ZM24.1075 13.1438L15.0779 11.8524L15.5084 7.49648L18.3167 8.96212L19.2493 9.45409L22.2729 11.0325L23.2978 11.5962L23.759 11.8422C23.8418 11.885 23.9113 11.9497 23.9601 12.0292C24.0089 12.1086 24.035 12.1999 24.0358 12.2931L24.1075 13.1438ZM12.3209 4.00148C12.1849 4.00148 12.0546 4.05547 11.9585 4.15158C11.8624 4.24769 11.8084 4.37803 11.8084 4.51395C11.8084 4.64986 11.8624 4.78021 11.9585 4.87631C12.0546 4.97242 12.1849 5.02641 12.3209 5.02641H13.3458C13.4817 5.02641 13.612 4.97242 13.7081 4.87631C13.8043 4.78021 13.8582 4.64986 13.8582 4.51395C13.8582 4.37803 13.8043 4.24769 13.7081 4.15158C13.612 4.05547 13.4817 4.00148 13.3458 4.00148H12.3209Z" fill="white"/>
</svg>