<svg xmlns="http://www.w3.org/2000/svg" width="20" height="24" viewBox="0 0 20 24" fill="none">
  <path d="M3.96361 10.4V9.9H3.46361H1.72111C1.47474 9.9 1.34997 9.72624 1.35011 9.60057V9.6C1.35011 9.52149 1.39176 9.43386 1.48858 9.36961L1.50285 9.36014L9.79438 5.07008L9.99988 4.96375L10.2053 5.07006L18.4989 9.3622L18.511 9.37019C18.609 9.4349 18.6501 9.52202 18.6501 9.6C18.6501 9.72607 18.525 9.9 18.2781 9.9H16.5361H16.0361V10.4V21.1H14.4216V12V11.5H13.9216H11.3066H10.8066V12V21.1H9.19261V12V11.5H8.69261H6.07811H5.57811V12V21.1H3.96361V10.4ZM10.6439 2.91069L10.0646 2.64442V0.959021L10.2264 1.03334C11.1164 1.44227 11.9376 1.30642 12.6514 1.18833C12.6814 1.18337 12.7111 1.17845 12.7407 1.17359C13.392 1.06676 14.0079 0.978335 14.7276 1.16683V2.92677C13.8971 2.76156 13.1875 2.87284 12.5793 2.97274C11.7995 3.10084 11.2522 3.19028 10.6439 2.91069ZM17.866 23.5H2.1337L2.7868 22.9005H17.2125L17.866 23.5Z" stroke="black"/>
</svg>