<svg xmlns="http://www.w3.org/2000/svg" width="18" height="10" viewBox="0 0 18 10" fill="none">
  <path d="M17.1431 4.99798C17.1416 4.81263 17.0684 4.6351 16.9388 4.50282L16.9345 4.49423L12.6488 0.200983C12.5141 0.0706415 12.3336 -0.00148106 12.1464 0.000148773C11.9591 0.00177956 11.7799 0.077033 11.6475 0.2097C11.515 0.342367 11.4399 0.521834 11.4383 0.709447C11.4367 0.897059 11.5087 1.07781 11.6388 1.21276L14.7045 4.2853L0.714497 4.2853C0.525055 4.2853 0.343374 4.36068 0.209419 4.49487C0.0754642 4.62906 0.000209808 4.81106 0.000209808 5.00084C0.000209808 5.19061 0.0754642 5.37261 0.209419 5.5068C0.343374 5.64099 0.525055 5.71638 0.714497 5.71638L14.7045 5.71638L11.6388 8.78748C11.5087 8.92244 11.4367 9.10319 11.4383 9.2908C11.4399 9.47841 11.515 9.65788 11.6475 9.79054C11.7799 9.92321 11.9591 9.99846 12.1464 10.0001C12.3336 10.0017 12.5141 9.9296 12.6488 9.79926L16.9345 5.50601L16.9388 5.49886C17.0024 5.43431 17.0528 5.358 17.0874 5.27417C17.1241 5.18776 17.1431 5.09478 17.1431 5.00084V4.99798Z" fill="#0662BA"/>
</svg>