
<svg width="30" height="30" viewBox="0 0 30 30" fill="none" xmlns="http://www.w3.org/2000/svg">
<path d="M0 4C0 1.79086 1.79086 0 4 0H26C28.2091 0 30 1.79086 30 4V26C30 28.2091 28.2091 30 26 30H4C1.79086 30 0 28.2091 0 26V4Z" fill="#67D27F"/>
<path d="M14.7112 9.06256L15.6898 8.08395C16.033 7.74042 16.4405 7.46788 16.8891 7.28189C17.3377 7.0959 17.8185 7.00011 18.3041 7C18.7897 6.99989 19.2706 7.09545 19.7192 7.28123C20.1679 7.46701 20.5755 7.73936 20.9189 8.08273C21.2623 8.4261 21.5346 8.83376 21.7204 9.28242C21.9062 9.73108 22.0018 10.2119 22.0016 10.6975C22.0015 11.1831 21.9057 11.664 21.7198 12.1125C21.5338 12.5611 21.2612 12.9686 20.9177 13.3118L18.5414 15.6882C18.1981 16.0314 17.7906 16.3037 17.3421 16.4895C16.8936 16.6753 16.4129 16.7709 15.9274 16.7709C15.442 16.7709 14.9613 16.6753 14.5128 16.4895C14.0643 16.3037 13.6567 16.0314 13.3135 15.6882" stroke="white" stroke-width="2" stroke-linecap="round" stroke-linejoin="round"/>
<path d="M14.2923 19.9375L13.3138 20.916C12.9706 21.2595 12.5631 21.532 12.1145 21.718C11.6659 21.904 11.1851 21.9998 10.6995 21.9999C10.2139 22 9.73303 21.9045 9.28437 21.7187C8.83572 21.5329 8.42806 21.2605 8.08469 20.9172C7.74132 20.5738 7.46896 20.1661 7.28318 19.7175C7.0974 19.2688 7.00184 18.788 7.00195 18.3024C7.00207 17.8168 7.09785 17.3359 7.28384 16.8874C7.46983 16.4388 7.74237 16.0313 8.0859 15.6881L10.4622 13.3117C10.8055 12.9685 11.213 12.6962 11.6615 12.5104C12.11 12.3246 12.5907 12.229 13.0762 12.229C13.5616 12.229 14.0423 12.3246 14.4908 12.5104C14.9393 12.6962 15.3468 12.9685 15.6901 13.3117" stroke="white" stroke-width="2" stroke-linecap="round" stroke-linejoin="round"/>
</svg>
