<svg xmlns="http://www.w3.org/2000/svg" width="25" height="21" viewBox="0 0 25 21" fill="none">
  <path fill-rule="evenodd" clip-rule="evenodd" d="M4.83798 12.2143C4.07568 11.3248 3.66003 10.2071 3.66003 9.02147C3.66003 7.68597 4.18738 6.43539 5.14346 5.50123C5.60029 5.03293 6.1466 4.66125 6.74993 4.4083C7.35325 4.15534 8.00128 4.02627 8.65549 4.02875H8.65686C9.9951 4.02875 11.2457 4.55473 12.1812 5.50944C12.2047 5.53345 12.2255 5.55967 12.2433 5.58759C12.769 5.44202 13.3225 5.36423 13.8936 5.36423C17.3235 5.36423 20.1136 8.1681 20.1136 11.6144C20.1136 11.676 20.1123 11.7377 20.1082 11.7993C20.6949 11.7744 21.2805 11.8683 21.8301 12.0754C22.3796 12.2824 22.8816 12.5984 23.3059 13.0043C23.7302 13.4103 24.0682 13.8978 24.2994 14.4375C24.5307 14.9773 24.6505 15.5583 24.6516 16.1455C24.6486 17.262 24.2184 18.3351 23.4491 19.1443C22.6798 19.9536 21.6299 20.4377 20.515 20.4972L20.4889 20.4999H7.06682C6.98792 20.4995 6.91031 20.4798 6.84082 20.4424C4.54239 20.1575 2.8261 18.2508 2.8261 15.9537C2.8261 14.399 3.62513 13.0251 4.83798 12.2143ZM11.2567 5.95423C10.9414 5.68037 10.5841 5.45784 10.1978 5.29553C9.71003 5.09057 9.18597 4.98584 8.65686 4.98757H8.65549C7.57887 4.98757 6.57211 5.41082 5.82012 6.17925C5.04347 6.93946 4.61885 7.94622 4.61885 9.0201C4.61885 10.0487 5.00842 11.017 5.71654 11.7564C6.23101 11.556 6.79095 11.4459 7.37639 11.4459C7.47638 11.4459 7.57637 11.45 7.67499 11.4582C7.73524 9.02549 9.18577 6.93249 11.2567 5.95423ZM5.7504 3.06631C5.82985 3.12059 5.92387 3.14954 6.0201 3.14938C6.09852 3.14996 6.17587 3.13119 6.24529 3.09473C6.31472 3.05827 6.37408 3.00524 6.41811 2.94035C6.46214 2.87546 6.48948 2.8007 6.4977 2.72272C6.50593 2.64473 6.49479 2.56592 6.46527 2.49327L5.80779 0.827659C5.78716 0.765855 5.75416 0.708904 5.71079 0.660283C5.66742 0.611662 5.61459 0.572392 5.55554 0.54487C5.49648 0.517349 5.43243 0.502153 5.36731 0.500213C5.30218 0.498272 5.23735 0.509627 5.17676 0.533583C5.11617 0.55754 5.0611 0.593595 5.01491 0.639547C4.96872 0.6855 4.93238 0.740385 4.90811 0.800851C4.88385 0.861317 4.87216 0.926095 4.87376 0.991229C4.87537 1.05636 4.89024 1.12049 4.91745 1.17968L5.57493 2.84529C5.60977 2.93499 5.67094 3.01204 5.7504 3.06631ZM0.172832 12.874C0.257833 12.9449 0.364694 12.9843 0.475375 12.9855C0.536967 12.9858 0.597985 12.9737 0.654811 12.9499L2.28344 12.2924C2.34189 12.2691 2.39514 12.2344 2.44011 12.1904C2.48509 12.1463 2.52089 12.0938 2.54547 12.0359C2.57005 11.9779 2.58291 11.9157 2.58331 11.8528C2.58371 11.7898 2.57164 11.7274 2.5478 11.6692C2.50032 11.5514 2.40802 11.4572 2.29116 11.4074C2.17431 11.3575 2.04246 11.3561 1.92456 11.4035L0.295939 12.0609C0.193759 12.1035 0.109392 12.18 0.0570806 12.2775C0.00476963 12.3751 -0.0122811 12.4877 0.00880698 12.5964C0.0298951 12.705 0.0878304 12.8031 0.172832 12.874ZM1.96155 6.87097C2.01865 6.89365 2.07954 6.90527 2.14098 6.90521C2.23666 6.90532 2.33015 6.87664 2.4093 6.8229C2.48845 6.76915 2.54959 6.69284 2.58478 6.60387C2.68477 6.35732 2.56697 6.07926 2.32042 5.97927L0.691794 5.32179C0.573547 5.2742 0.441238 5.27553 0.323974 5.3255C0.20671 5.37546 0.114096 5.46996 0.0665064 5.58821C0.0189169 5.70645 0.0202498 5.83876 0.0702124 5.95603C0.120175 6.07329 0.214674 6.1659 0.332922 6.21349L1.96155 6.87097ZM11.1839 3.13058C11.2539 3.16817 11.332 3.18781 11.4114 3.18773C11.5051 3.18773 11.5967 3.16021 11.6749 3.10858C11.753 3.05696 11.8143 2.9835 11.8511 2.89734L12.5497 1.27009C12.5957 1.15404 12.5947 1.02461 12.5468 0.909309C12.4989 0.794014 12.4079 0.701953 12.2932 0.652708C12.1784 0.603462 12.049 0.600916 11.9324 0.645611C11.8159 0.690305 11.7213 0.778715 11.6689 0.892038L10.9704 2.51929C10.9391 2.59225 10.9264 2.67184 10.9334 2.75092C10.9405 2.83 10.9671 2.90609 11.0108 2.97235C11.0545 3.03862 11.114 3.09299 11.1839 3.13058ZM20.4752 19.5397H7.2175C7.17207 19.5205 7.12407 19.5081 7.07504 19.5027C5.23274 19.3301 3.78629 17.77 3.78629 15.9524C3.78629 13.9964 5.39848 12.4047 7.37913 12.4047C7.62303 12.4047 7.86295 12.4392 8.11585 12.4755L8.12838 12.4773C8.20884 12.4866 8.29036 12.4759 8.36565 12.446C8.44095 12.4161 8.50766 12.3681 8.55985 12.3061C8.61181 12.2429 8.64707 12.1676 8.66238 12.0872C8.6777 12.0068 8.67259 11.9238 8.64751 11.8459C8.63244 11.802 8.63244 11.6747 8.63244 11.6144V11.6144C8.63244 8.69682 10.9939 6.32306 13.895 6.32306C16.7961 6.32306 19.1576 8.69682 19.1576 11.6144C19.1576 11.7949 19.13 11.9754 19.0918 12.2265C19.0891 12.244 19.0864 12.2618 19.0836 12.2801C19.0735 12.3548 19.0811 12.4309 19.1056 12.5022C19.1301 12.5735 19.1709 12.6382 19.2247 12.691C19.2786 12.7437 19.344 12.7832 19.4158 12.8063C19.4876 12.8294 19.5638 12.8354 19.6383 12.8239C19.8452 12.7882 20.0534 12.754 20.2972 12.754C21.1972 12.7547 22.0602 13.1123 22.6969 13.7483C23.3337 14.3843 23.6923 15.2469 23.6941 16.1469C23.6903 17.0159 23.3552 17.8507 22.7571 18.4812C22.1589 19.1116 21.3429 19.4902 20.4752 19.5397Z" fill="black"/>
</svg>