<svg xmlns="http://www.w3.org/2000/svg" viewBox="0 0 160 160">
<path fill="gray" d="M128.22 152.2H64.06a26.35 26.35 0 01-4-52.39 38.46 38.46 0 0168.22-7 29.71 29.71 0 010 59.42zm-32.3-67.43a28.63 28.63 0 00-27.73 20.87 4.8 4.8 0 01-4.5 3.47 16.75 16.75 0 00.38 33.5h64.15a20.11 20.11 0 000-40.22 16.81 16.81 0 00-2 .13 4.81 4.81 0 01-4.8-2.49 28.88 28.88 0 00-25.5-15.26z"/>
<path fill="gray" d="M128.22 152.2a4.8 4.8 0 010-9.6 20.1 20.1 0 10-15.15-33.33 4.8 4.8 0 11-7.24-6.3 29.71 29.71 0 1122.39 49.23z"/>
<path fill="gray" d="M112.19 47.46a5 5 0 005 2.6 23.31 23.31 0 013-.18A27.85 27.85 0 01146.63 86a5 5 0 004.76 6.43 5 5 0 004.77-3.43 36.84 36.84 0 001.73-10.33A37.9 37.9 0 00120 39.87h-.69A49.4 49.4 0 0031.07 49a33.42 33.42 0 00-6.41 64.77 4.9 4.9 0 006.5-4.62v-.23a5 5 0 00-3.4-4.66 23.42 23.42 0 017.14-45.51 5.06 5.06 0 004.71-3.68 39.4 39.4 0 0172.58-7.61z"/>
<path fill="gray" d="M99.24 59.22a27.85 27.85 0 0147.42 26.73 5 5 0 004.76 6.51A5 5 0 00156.2 89a37.86 37.86 0 00-64.68-36.14 5 5 0 00.93 7.4 5.19 5.19 0 006.79-1.04z"/></svg>