<svg xmlns="http://www.w3.org/2000/svg" width="14" height="15" viewBox="0 0 14 15" fill="none">
  <path d="M6.99146 1.74707C7.75643 1.74707 8.51391 1.89795 9.22064 2.19109C9.92738 2.48423 10.5695 2.91389 11.1104 3.45554C12.2029 4.54945 12.8166 6.03312 12.8166 7.58015C12.8217 8.92708 12.3559 10.2333 11.5001 11.2725L12.6651 12.4391C12.746 12.5211 12.8007 12.6253 12.8225 12.7384C12.8443 12.8516 12.8321 12.9687 12.7875 13.0749C12.7391 13.1799 12.6606 13.268 12.5621 13.3283C12.4636 13.3885 12.3494 13.4181 12.2341 13.4132H6.99146C5.44654 13.4132 3.9649 12.7987 2.87248 11.7048C1.78006 10.6108 1.16634 9.12717 1.16634 7.58015C1.16634 6.03312 1.78006 4.54945 2.87248 3.45554C3.9649 2.36162 5.44654 1.74707 6.99146 1.74707Z" fill="#67D27F"/>
</svg>