<svg xmlns="http://www.w3.org/2000/svg" width="25" height="19" viewBox="0 0 25 19" fill="none">
  <path d="M22.667 3.5H19.667C19.667 3.5 18.8 3.5 18.167 2C17.8445 1.2365 17.495 0.5 16.667 0.5H10.667C9.83899 0.5 9.47899 1.232 9.16699 2C8.55799 3.5 7.66699 3.5 7.66699 3.5H6.16699C6.16699 3.10218 6.00896 2.72064 5.72765 2.43934C5.44635 2.15804 5.06482 2 4.66699 2H3.16699C2.76917 2 2.38764 2.15804 2.10633 2.43934C1.82503 2.72064 1.66699 3.10218 1.66699 3.5C1.26917 3.5 0.887637 3.65804 0.606332 3.93934C0.325027 4.22064 0.166992 4.60218 0.166992 5L0.166992 17C0.166992 17.3978 0.325027 17.7794 0.606332 18.0607C0.887637 18.342 1.26917 18.5 1.66699 18.5H22.667C23.0648 18.5 23.4463 18.342 23.7277 18.0607C24.009 17.7794 24.167 17.3978 24.167 17V5C24.167 4.60218 24.009 4.22064 23.7277 3.93934C23.4463 3.65804 23.0648 3.5 22.667 3.5ZM22.667 17H1.66699V11H8.49199C8.85949 13.541 11.024 15.5 13.667 15.5C16.3745 15.5 18.5765 13.4435 18.86 10.8125H22.667V17ZM9.91699 10.25C9.91699 8.1815 11.6 6.5 13.667 6.5C15.734 6.5 17.417 8.1815 17.417 10.25C17.417 12.317 15.734 14 13.667 14C11.6 14 9.91699 12.317 9.91699 10.25ZM18.842 9.5C18.4745 6.959 16.31 5 13.667 5C11.024 5 8.85949 6.959 8.49199 9.5H1.66699V5H7.66699C8.54299 5 9.82699 4.3625 10.556 2.564C10.6805 2.2595 10.7645 2.0915 10.82 2H16.508C16.6085 2.165 16.7375 2.4695 16.7855 2.5835C17.756 4.883 19.3565 5 19.667 5H22.667V9.5H18.842ZM3.16699 7.265C3.16699 7.46391 3.24601 7.65468 3.38666 7.79533C3.52731 7.93598 3.71808 8.015 3.91699 8.015C4.1159 8.015 4.30667 7.93598 4.44732 7.79533C4.58797 7.65468 4.66699 7.46391 4.66699 7.265C4.66699 7.06609 4.58797 6.87532 4.44732 6.73467C4.30667 6.59402 4.1159 6.515 3.91699 6.515C3.71808 6.515 3.52731 6.59402 3.38666 6.73467C3.24601 6.87532 3.16699 7.06609 3.16699 7.265Z" fill="white"/>
</svg>