<svg xmlns="http://www.w3.org/2000/svg" width="24" height="25" viewBox="0 0 24 25" fill="none">
  <path fill-rule="evenodd" clip-rule="evenodd" d="M2 12.0801L2.20101 11.5465C3.72571 7.49881 7.51292 4.58008 12 4.58008C16.4913 4.58008 20.2744 7.49917 21.799 11.5465L22 12.0801L21.799 12.6137C20.2744 16.661 16.4913 19.5801 12 19.5801C7.51292 19.5801 3.72571 16.6613 2.20101 12.6137L2 12.0801ZM20.4117 12.0801C19.0888 15.5921 15.8273 18.0801 12 18.0801C8.17651 18.0801 4.91124 15.5921 3.58832 12.0801C4.91124 8.56808 8.17651 6.08008 12 6.08008C15.8273 6.08008 19.0888 8.56808 20.4117 12.0801ZM8.17651 12.0801C8.17651 14.2881 9.88943 16.0801 12 16.0801C14.1106 16.0801 15.8235 14.2881 15.8235 12.0801C15.8235 9.87208 14.1106 8.08008 12 8.08008C9.88943 8.08008 8.17651 9.87208 8.17651 12.0801ZM9.7059 12.0801C9.7059 10.7561 10.7344 9.68008 12 9.68008C13.2656 9.68008 14.2941 10.7561 14.2941 12.0801C14.2941 13.4041 13.2656 14.4801 12 14.4801C10.7344 14.4801 9.7059 13.4041 9.7059 12.0801Z" fill="white"/>
</svg>