<svg xmlns="http://www.w3.org/2000/svg" viewBox="0 0 160 160"><script xmlns=""/><path fill="#0662ba" d="M127.87 142.67H67.36a25.26 25.26 0 01-4.1-50.18 36.68 36.68 0 0164.86-6.68 28.43 28.43 0 01-.25 56.86zM97.41 79.06a26.6 26.6 0 00-25.77 19.39A4.93 4.93 0 0167 102a15.4 15.4 0 00.35 30.79h60.51a18.57 18.57 0 100-37.13 15.44 15.44 0 00-1.87.12 4.93 4.93 0 01-4.94-2.56 26.84 26.84 0 00-23.64-14.16z"/><path fill="#0662ba" d="M127.87 142.67a4.93 4.93 0 110-9.87 18.56 18.56 0 10-14-30.77 4.93 4.93 0 01-7.44-6.48 28.43 28.43 0 1121.44 47.12zM75.24 45.9a38.58 38.58 0 00-34.93 55 27 27 0 017.64-7.9 28.57 28.57 0 0148.17-28 23.69 23.69 0 015.13-.57 25 25 0 017.62 1.17 38.62 38.62 0 00-33.63-19.7zm0-8.4a5 5 0 01-5-5v-16a5 5 0 1110 0v16a5 5 0 01-5 5zM23.26 89.48h-16a5 5 0 110-10h16a5 5 0 010 10zm88.3-36.28a5 5 0 01-3.56-8.54l11.32-11.32a5 5 0 117.07 7.07l-11.3 11.33a5 5 0 01-3.53 1.46zm-73.07 0A5 5 0 0135 51.74L23.63 40.42a5 5 0 117.07-7.07L42 44.66a5 5 0 01-3.51 8.54z"/><script xmlns=""/></svg>