<svg xmlns="http://www.w3.org/2000/svg" width="28" height="25" viewBox="0 0 28 25" fill="none">
  <path d="M24.3095 9.92857H21.4524V9.07143C21.4524 8.38944 21.1514 7.73539 20.6155 7.25315C20.0797 6.77092 19.353 6.5 18.5952 6.5H17.6429C16.8851 6.5 16.1584 6.77092 15.6226 7.25315C15.0867 7.73539 14.7857 8.38944 14.7857 9.07143V9.92857H12.881V9.07143C12.881 8.38944 12.5799 7.73539 12.0441 7.25315C11.5083 6.77092 10.7816 6.5 10.0238 6.5H9.07143C8.31367 6.5 7.58694 6.77092 7.05112 7.25315C6.51531 7.73539 6.21429 8.38944 6.21429 9.07143V9.92857H4.30952V3.07143C4.30952 2.8441 4.40986 2.62608 4.58847 2.46534C4.76708 2.30459 5.00932 2.21429 5.2619 2.21429H22.4048C22.6573 2.21429 22.8996 2.30459 23.0782 2.46534C23.2568 2.62608 23.3571 2.8441 23.3571 3.07143V8.08571C23.3571 8.31304 23.4575 8.53106 23.6361 8.69181C23.8147 8.85255 24.0569 8.94286 24.3095 8.94286C24.5621 8.94286 24.8044 8.85255 24.983 8.69181C25.1616 8.53106 25.2619 8.31304 25.2619 8.08571V3.07143C25.2619 2.38944 24.9609 1.73539 24.4251 1.25315C23.8892 0.770918 23.1625 0.5 22.4048 0.5H5.2619C4.50414 0.5 3.77742 0.770918 3.2416 1.25315C2.70578 1.73539 2.40476 2.38944 2.40476 3.07143V10.0829C1.849 10.2597 1.36762 10.5869 1.02661 11.0197C0.685599 11.4524 0.501657 11.9695 0.5 12.5V15.9286C0.5 16.1559 0.60034 16.3739 0.778946 16.5347C0.957552 16.6954 1.19979 16.7857 1.45238 16.7857H15.9095C16.1621 16.7857 16.4044 16.6954 16.583 16.5347C16.7616 16.3739 16.8619 16.1559 16.8619 15.9286C16.8619 15.7012 16.7616 15.4832 16.583 15.3225C16.4044 15.1617 16.1621 15.0714 15.9095 15.0714H2.40476V12.5C2.40476 12.2727 2.5051 12.0547 2.68371 11.8939C2.86231 11.7332 3.10456 11.6429 3.35714 11.6429H24.3095C24.5621 11.6429 24.8044 11.7332 24.983 11.8939C25.1616 12.0547 25.2619 12.2727 25.2619 12.5V15.0714H21.2238C20.9712 15.0714 20.729 15.1617 20.5504 15.3225C20.3718 15.4832 20.2714 15.7012 20.2714 15.9286C20.2714 16.1559 20.3718 16.3739 20.5504 16.5347C20.729 16.6954 20.9712 16.7857 21.2238 16.7857H25.2619V19.3571C25.2619 19.5845 25.1616 19.8025 24.983 19.9632C24.8044 20.124 24.5621 20.2143 24.3095 20.2143H3.35714C3.10456 20.2143 2.86231 20.124 2.68371 19.9632C2.5051 19.8025 2.40476 19.5845 2.40476 19.3571V18.8429C2.40476 18.6155 2.30442 18.3975 2.12582 18.2368C1.94721 18.076 1.70497 17.9857 1.45238 17.9857C1.19979 17.9857 0.957552 18.076 0.778946 18.2368C0.60034 18.3975 0.5 18.6155 0.5 18.8429V19.3571C0.5 20.0391 0.80102 20.6932 1.33684 21.1754C1.87266 21.6577 2.59938 21.9286 3.35714 21.9286H24.3095C25.0673 21.9286 25.794 21.6577 26.3298 21.1754C26.8656 20.6932 27.1667 20.0391 27.1667 19.3571V12.5C27.1667 11.818 26.8656 11.164 26.3298 10.6817C25.794 10.1995 25.0673 9.92857 24.3095 9.92857ZM8.11905 9.92857V9.07143C8.11905 8.8441 8.21939 8.62608 8.39799 8.46534C8.5766 8.30459 8.81884 8.21429 9.07143 8.21429H10.0238C10.2764 8.21429 10.5186 8.30459 10.6972 8.46534C10.8759 8.62608 10.9762 8.8441 10.9762 9.07143V9.92857H8.11905ZM16.6905 9.92857V9.07143C16.6905 8.8441 16.7908 8.62608 16.9694 8.46534C17.148 8.30459 17.3903 8.21429 17.6429 8.21429H18.5952C18.8478 8.21429 19.0901 8.30459 19.2687 8.46534C19.4473 8.62608 19.5476 8.8441 19.5476 9.07143V9.92857H16.6905ZM7.16667 22.7857H3.35714C3.10456 22.7857 2.86231 22.876 2.68371 23.0368C2.5051 23.1975 2.40476 23.4155 2.40476 23.6429C2.40476 23.8702 2.5051 24.0882 2.68371 24.2489C2.86231 24.4097 3.10456 24.5 3.35714 24.5H7.16667C7.41925 24.5 7.6615 24.4097 7.8401 24.2489C8.01871 24.0882 8.11905 23.8702 8.11905 23.6429C8.11905 23.4155 8.01871 23.1975 7.8401 23.0368C7.6615 22.876 7.41925 22.7857 7.16667 22.7857ZM24.3095 22.7857H20.5C20.2474 22.7857 20.0052 22.876 19.8266 23.0368C19.648 23.1975 19.5476 23.4155 19.5476 23.6429C19.5476 23.8702 19.648 24.0882 19.8266 24.2489C20.0052 24.4097 20.2474 24.5 20.5 24.5H24.3095C24.5621 24.5 24.8044 24.4097 24.983 24.2489C25.1616 24.0882 25.2619 23.8702 25.2619 23.6429C25.2619 23.4155 25.1616 23.1975 24.983 23.0368C24.8044 22.876 24.5621 22.7857 24.3095 22.7857Z" fill="white"/>
</svg>