<svg xmlns="http://www.w3.org/2000/svg" width="27" height="24" viewBox="0 0 27 24" fill="none">
  <path d="M23.8095 9.42857H20.9524V8.57143C20.9524 7.88944 20.6514 7.23539 20.1155 6.75315C19.5797 6.27092 18.853 6 18.0952 6H17.1429C16.3851 6 15.6584 6.27092 15.1226 6.75315C14.5867 7.23539 14.2857 7.88944 14.2857 8.57143V9.42857H12.381V8.57143C12.381 7.88944 12.0799 7.23539 11.5441 6.75315C11.0083 6.27092 10.2816 6 9.52381 6H8.57143C7.81367 6 7.08694 6.27092 6.55112 6.75315C6.01531 7.23539 5.71429 7.88944 5.71429 8.57143V9.42857H3.80952V2.57143C3.80952 2.3441 3.90986 2.12608 4.08847 1.96534C4.26708 1.80459 4.50932 1.71429 4.7619 1.71429H21.9048C22.1573 1.71429 22.3996 1.80459 22.5782 1.96534C22.7568 2.12608 22.8571 2.3441 22.8571 2.57143V7.58571C22.8571 7.81304 22.9575 8.03106 23.1361 8.19181C23.3147 8.35255 23.5569 8.44286 23.8095 8.44286C24.0621 8.44286 24.3044 8.35255 24.483 8.19181C24.6616 8.03106 24.7619 7.81304 24.7619 7.58571V2.57143C24.7619 1.88944 24.4609 1.23539 23.9251 0.753154C23.3892 0.270918 22.6625 0 21.9048 0H4.7619C4.00414 0 3.27742 0.270918 2.7416 0.753154C2.20578 1.23539 1.90476 1.88944 1.90476 2.57143V9.58286C1.349 9.7597 0.867617 10.0869 0.526608 10.5197C0.185599 10.9524 0.00165668 11.4695 0 12V15.4286C0 15.6559 0.10034 15.8739 0.278946 16.0347C0.457552 16.1954 0.699794 16.2857 0.952381 16.2857H15.4095C15.6621 16.2857 15.9044 16.1954 16.083 16.0347C16.2616 15.8739 16.3619 15.6559 16.3619 15.4286C16.3619 15.2012 16.2616 14.9832 16.083 14.8225C15.9044 14.6617 15.6621 14.5714 15.4095 14.5714H1.90476V12C1.90476 11.7727 2.0051 11.5547 2.18371 11.3939C2.36231 11.2332 2.60456 11.1429 2.85714 11.1429H23.8095C24.0621 11.1429 24.3044 11.2332 24.483 11.3939C24.6616 11.5547 24.7619 11.7727 24.7619 12V14.5714H20.7238C20.4712 14.5714 20.229 14.6617 20.0504 14.8225C19.8718 14.9832 19.7714 15.2012 19.7714 15.4286C19.7714 15.6559 19.8718 15.8739 20.0504 16.0347C20.229 16.1954 20.4712 16.2857 20.7238 16.2857H24.7619V18.8571C24.7619 19.0845 24.6616 19.3025 24.483 19.4632C24.3044 19.624 24.0621 19.7143 23.8095 19.7143H2.85714C2.60456 19.7143 2.36231 19.624 2.18371 19.4632C2.0051 19.3025 1.90476 19.0845 1.90476 18.8571V18.3429C1.90476 18.1155 1.80442 17.8975 1.62582 17.7368C1.44721 17.576 1.20497 17.4857 0.952381 17.4857C0.699794 17.4857 0.457552 17.576 0.278946 17.7368C0.10034 17.8975 0 18.1155 0 18.3429V18.8571C0 19.5391 0.30102 20.1932 0.836838 20.6754C1.37266 21.1577 2.09938 21.4286 2.85714 21.4286H23.8095C24.5673 21.4286 25.294 21.1577 25.8298 20.6754C26.3656 20.1932 26.6667 19.5391 26.6667 18.8571V12C26.6667 11.318 26.3656 10.664 25.8298 10.1817C25.294 9.69949 24.5673 9.42857 23.8095 9.42857ZM7.61905 9.42857V8.57143C7.61905 8.3441 7.71939 8.12608 7.89799 7.96534C8.0766 7.80459 8.31884 7.71429 8.57143 7.71429H9.52381C9.7764 7.71429 10.0186 7.80459 10.1972 7.96534C10.3759 8.12608 10.4762 8.3441 10.4762 8.57143V9.42857H7.61905ZM16.1905 9.42857V8.57143C16.1905 8.3441 16.2908 8.12608 16.4694 7.96534C16.648 7.80459 16.8903 7.71429 17.1429 7.71429H18.0952C18.3478 7.71429 18.5901 7.80459 18.7687 7.96534C18.9473 8.12608 19.0476 8.3441 19.0476 8.57143V9.42857H16.1905ZM6.66667 22.2857H2.85714C2.60456 22.2857 2.36231 22.376 2.18371 22.5368C2.0051 22.6975 1.90476 22.9155 1.90476 23.1429C1.90476 23.3702 2.0051 23.5882 2.18371 23.7489C2.36231 23.9097 2.60456 24 2.85714 24H6.66667C6.91925 24 7.1615 23.9097 7.3401 23.7489C7.51871 23.5882 7.61905 23.3702 7.61905 23.1429C7.61905 22.9155 7.51871 22.6975 7.3401 22.5368C7.1615 22.376 6.91925 22.2857 6.66667 22.2857ZM23.8095 22.2857H20C19.7474 22.2857 19.5052 22.376 19.3266 22.5368C19.148 22.6975 19.0476 22.9155 19.0476 23.1429C19.0476 23.3702 19.148 23.5882 19.3266 23.7489C19.5052 23.9097 19.7474 24 20 24H23.8095C24.0621 24 24.3044 23.9097 24.483 23.7489C24.6616 23.5882 24.7619 23.3702 24.7619 23.1429C24.7619 22.9155 24.6616 22.6975 24.483 22.5368C24.3044 22.376 24.0621 22.2857 23.8095 22.2857Z" fill="black"/>
</svg>