<svg xmlns="http://www.w3.org/2000/svg" width="20" height="21" viewBox="0 0 20 21" fill="none">
  <path d="M18.5627 10.6101L18.259 10.9137C18.4482 13.6168 18.4708 16.3289 18.3265 19.0347C18.3076 19.432 18.1353 19.8065 17.8459 20.0793C17.5566 20.3522 17.1726 20.5023 16.7749 20.4979C16.3772 20.4935 15.9967 20.3351 15.7134 20.0559C15.4301 19.7767 15.2661 19.3986 15.2559 19.001V1.53192C15.2539 1.3509 15.301 1.17274 15.3921 1.01631C15.4832 0.859872 15.6149 0.730995 15.7733 0.643336C15.9275 0.549582 16.1045 0.5 16.285 0.5C16.4655 0.5 16.6426 0.549582 16.7968 0.643336L17.213 0.879541C17.5801 1.09659 17.8939 1.39313 18.1314 1.74739C18.3689 2.10164 18.5239 2.5046 18.5852 2.92665L19.3726 8.16815C19.4423 8.61026 19.4051 9.06264 19.2642 9.48746C19.1233 9.91228 18.8828 10.2972 18.5627 10.6101ZM3.79429 0.711948C2.02838 0.711948 0.5999 2.62408 0.5999 4.97488C0.560253 5.73042 0.712785 6.48367 1.04324 7.16425C1.3737 7.84484 1.8713 8.43055 2.48954 8.86664C2.22356 12.2528 2.1447 15.6511 2.25333 19.0459C2.27085 19.4408 2.44162 19.8132 2.72935 20.0842C3.01709 20.3551 3.39912 20.5032 3.79429 20.4969C4.19002 20.4958 4.57003 20.3419 4.85504 20.0674C5.14005 19.7928 5.30805 19.4189 5.324 19.0234C5.43308 15.6361 5.35422 12.2453 5.08779 8.86664C5.70757 8.43131 6.20696 7.84607 6.53936 7.16553C6.87176 6.48499 7.02634 5.73133 6.98868 4.97488C6.98868 2.62408 5.54895 0.711948 3.79429 0.711948ZM13.2312 0.711948C13.1757 0.712081 13.1207 0.723311 13.0695 0.744979C13.0184 0.766648 12.972 0.798317 12.9333 0.83813C12.8945 0.877942 12.8641 0.925096 12.8438 0.976825C12.8235 1.02855 12.8137 1.08381 12.8151 1.13937V4.97488H12.2021V1.13712C12.2021 1.02525 12.1576 0.917965 12.0785 0.838863C11.9994 0.759761 11.8921 0.715322 11.7803 0.715322C11.6684 0.715322 11.5611 0.759761 11.482 0.838863C11.4029 0.917965 11.3585 1.02525 11.3585 1.13712V4.97376H10.7477V1.13712C10.7477 1.02525 10.7033 0.917965 10.6242 0.838863C10.5451 0.759761 10.4378 0.715322 10.3259 0.715322C10.2141 0.715322 10.1068 0.759761 10.0277 0.838863C9.94856 0.917965 9.90412 1.02525 9.90412 1.13712V4.97376H9.29449V1.13824C9.29449 1.02637 9.25005 0.919089 9.17095 0.839988C9.09185 0.760886 8.98456 0.716447 8.8727 0.716447C8.76083 0.716447 8.65354 0.760886 8.57444 0.839988C8.49534 0.919089 8.4509 1.02637 8.4509 1.13824V6.75092C8.44998 7.13342 8.58352 7.50408 8.82819 7.79809C9.07286 8.09211 9.41309 8.29078 9.7894 8.35936C9.49816 11.9057 9.40804 15.4658 9.51945 19.0223C9.53465 19.4194 9.70306 19.7951 9.98932 20.0706C10.2756 20.3461 10.6575 20.5 11.0548 20.5C11.4521 20.5 11.834 20.3461 12.1202 20.0706C12.4065 19.7951 12.5749 19.4194 12.5901 19.0223C12.7041 15.4658 12.614 11.9056 12.3202 8.35936C12.6955 8.28874 13.0345 8.0895 13.2788 7.79593C13.5231 7.50237 13.6574 7.13283 13.6587 6.75092V1.13824C13.6584 1.02508 13.6132 0.916651 13.5331 0.836738C13.4529 0.756824 13.3444 0.711947 13.2312 0.711948Z" fill="black"/>
</svg>