<svg xmlns="http://www.w3.org/2000/svg" width="10" height="10" viewBox="0 0 10 10" fill="none">
  <path d="M5.00215 9.82141C5.18749 9.81997 5.36502 9.74673 5.4973 9.61713L5.50589 9.61284L9.79914 5.32713C9.92948 5.19241 10.0016 5.01198 9.99997 4.8247C9.99834 4.63741 9.92309 4.45826 9.79042 4.32583C9.65776 4.19339 9.47829 4.11827 9.29068 4.11664C9.10306 4.11502 8.92232 4.18701 8.78736 4.31712L5.71483 7.38284L5.71483 0.892839C5.71483 0.703399 5.63944 0.521717 5.50525 0.387763C5.37106 0.253808 5.18906 0.178555 4.99928 0.178555C4.80951 0.178555 4.62751 0.253808 4.49332 0.387763C4.35913 0.521717 4.28374 0.703399 4.28374 0.892839L4.28374 7.38284L1.21264 4.31712C1.07768 4.18701 0.896937 4.11502 0.709324 4.11664C0.521712 4.11827 0.342245 4.19339 0.209577 4.32583C0.07691 4.45826 0.00165735 4.63741 2.70494e-05 4.8247C-0.00160325 5.01198 0.0705193 5.19241 0.200861 5.32713L4.49411 9.61284L4.50127 9.61713C4.56581 9.68071 4.64212 9.73117 4.72595 9.7657C4.81237 9.80247 4.90534 9.82142 4.99928 9.82141H5.00215Z" fill="#0662BA"/>
</svg>