<svg xmlns="http://www.w3.org/2000/svg" width="12" height="14" viewBox="0 0 12 14" fill="none">
  <path d="M11.3096 6.99785C11.3081 6.81251 11.2349 6.63498 11.1053 6.5027L11.101 6.49411L6.81528 2.20086C6.68057 2.07052 6.50014 1.9984 6.31286 2.00003C6.12557 2.00166 5.94642 2.07691 5.81399 2.20958C5.68155 2.34225 5.60643 2.52171 5.6048 2.70932C5.60318 2.89694 5.67517 3.07768 5.80528 3.21264L8.871 6.28517L0.714332 6.28517C0.524891 6.28517 0.34321 6.36056 0.209256 6.49475C0.0753012 6.62894 4.673e-05 6.81094 4.673e-05 7.00072C4.673e-05 7.19049 0.0753012 7.37249 0.209256 7.50668C0.34321 7.64087 0.524891 7.71626 0.714332 7.71626L8.871 7.71626L5.80528 10.7874C5.67517 10.9223 5.60318 11.1031 5.6048 11.2907C5.60643 11.4783 5.68155 11.6578 5.81399 11.7904C5.94642 11.9231 6.12557 11.9983 6.31286 12C6.50014 12.0016 6.68057 11.9295 6.81528 11.7991L11.101 7.50589L11.1053 7.49873C11.1689 7.43419 11.2193 7.35788 11.2539 7.27405C11.2906 7.18763 11.3096 7.09466 11.3096 7.00072V6.99785Z" fill="#818181"/>
</svg>