
<svg width="31" height="30" viewBox="0 0 31 30" fill="none" xmlns="http://www.w3.org/2000/svg">
<path d="M0.00195312 4C0.00195312 1.79086 1.79281 0 4.00195 0H26.002C28.2111 0 30.002 1.79086 30.002 4V26C30.002 28.2091 28.2111 30 26.002 30H4.00195C1.79281 30 0.00195312 28.2091 0.00195312 26V4Z" fill="#FFC107"/>
<path d="M14.9968 14.9994C17.7541 14.9994 19.9965 12.757 19.9965 9.99971C19.9965 7.24237 17.7541 5 14.9968 5C12.2394 5 9.99707 7.24237 9.99707 9.99971C9.99707 12.757 12.2394 14.9994 14.9968 14.9994ZM14.9968 7.49985C16.3754 7.49985 17.4966 8.62104 17.4966 9.99971C17.4966 11.3784 16.3754 12.4996 14.9968 12.4996C13.6181 12.4996 12.4969 11.3784 12.4969 9.99971C12.4969 8.62104 13.6181 7.49985 14.9968 7.49985Z" fill="white"/>
<path d="M21.6264 14.8606C21.5104 14.7444 21.3727 14.6523 21.221 14.5894C21.0694 14.5265 20.9069 14.4941 20.7427 14.4941C20.5786 14.4941 20.416 14.5265 20.2644 14.5894C20.1127 14.6523 19.975 14.7444 19.859 14.8606C18.5684 16.1477 16.8201 16.8705 14.9974 16.8705C13.1747 16.8705 11.4264 16.1477 10.1358 14.8606C9.90129 14.6262 9.58326 14.4946 9.25169 14.4948C8.92012 14.4949 8.60218 14.6267 8.36781 14.8612C8.13344 15.0958 8.00184 15.4138 8.00195 15.7454C8.00207 16.077 8.1339 16.3949 8.36843 16.6293C9.86413 18.1252 11.8244 19.0677 13.9269 19.3016L10.3633 22.8652C10.2473 22.9812 10.1552 23.119 10.0924 23.2706C10.0296 23.4222 9.99728 23.5847 9.99728 23.7488C9.99728 24.0803 10.1289 24.3982 10.3633 24.6325C10.5977 24.8669 10.9156 24.9986 11.247 24.9986C11.5785 24.9986 11.8963 24.8669 12.1307 24.6325L14.9968 21.7665L17.8629 24.6325C17.9787 24.749 18.1164 24.8415 18.268 24.9045C18.4197 24.9676 18.5823 25.0001 18.7466 25.0001C18.9108 25.0001 19.0735 24.9676 19.2251 24.9045C19.3768 24.8415 19.5145 24.749 19.6303 24.6325C19.7464 24.5166 19.8386 24.3788 19.9015 24.2272C19.9644 24.0756 19.9968 23.913 19.9968 23.7488C19.9968 23.5847 19.9644 23.4221 19.9015 23.2705C19.8386 23.1189 19.7464 22.9811 19.6303 22.8652L16.0667 19.3016C18.1692 19.0677 20.1295 18.1252 21.6252 16.6293C21.8597 16.3948 21.9916 16.0768 21.9919 15.7452C21.9921 15.4136 21.8606 15.0954 21.6264 14.8606Z" fill="white"/>
</svg>
