<svg xmlns="http://www.w3.org/2000/svg" width="24" height="25" viewBox="0 0 24 25" fill="none">
  <path fill-rule="evenodd" clip-rule="evenodd" d="M0.499495 24.4999C0.64598 24.4999 0.790509 24.4362 0.889144 24.3137L1.96263 22.9816H22.0374L23.1108 24.3137C23.2831 24.5283 23.5981 24.5629 23.8134 24.3893C24.0287 24.216 24.0624 23.9013 23.8891 23.6862L18.8488 17.4309C19.8598 17.1102 20.5995 16.174 20.5995 15.0583V2.99999C20.5995 1.62158 19.478 0.5 18.0995 0.5H5.90085C4.52243 0.5 3.40086 1.62158 3.40086 2.99999V15.0583C3.40086 16.174 4.1406 17.1102 5.15159 17.4309L0.110826 23.6862C-0.0625135 23.9013 -0.0288236 24.216 0.186021 24.3893C0.278796 24.4638 0.389635 24.4999 0.499495 24.4999ZM2.76841 21.9816L4.53732 19.7866H19.4629L21.2316 21.9816H2.76841ZM5.34323 18.7866L6.33297 17.5583H17.6674L18.6572 18.7866H5.34323ZM4.90085 11.0549C4.62497 11.0549 4.40085 10.8305 4.40085 10.5549V5.77489C4.40085 5.49925 4.62497 5.27489 4.90085 5.27489H11.5V11.0549H4.90085ZM12.5 5.27489H19.0995C19.3754 5.27489 19.5995 5.49925 19.5995 5.77489V10.5549C19.5995 10.8305 19.3754 11.0549 19.0995 11.0549H12.5V5.27489ZM5.90085 1.5H18.0995C18.9267 1.5 19.5995 2.17285 19.5995 2.99999V4.36705C19.4423 4.31102 19.2757 4.27489 19.0995 4.27489H4.90085C4.72471 4.27489 4.55808 4.31102 4.40085 4.36705V2.99999C4.40085 2.17285 5.0737 1.5 5.90085 1.5ZM4.40085 15.0583V11.9627C4.41277 11.967 4.42399 11.9711 4.43475 11.975C4.45812 11.9834 4.47934 11.9911 4.50078 11.9981C4.71201 12.0669 4.94587 12.0661 7.48277 12.0578C9.50554 12.0512 12.9925 12.0397 19.0995 12.0549C19.2757 12.0549 19.4423 12.0188 19.5995 11.9627V15.0583C19.5995 15.8855 18.9267 16.5583 18.0995 16.5583H17.9067H6.09372H5.90085C5.0737 16.5583 4.40085 15.8855 4.40085 15.0583ZM9.78345 3.25283H14.216C14.4924 3.25283 14.716 3.02895 14.716 2.75283C14.716 2.47671 14.4924 2.25283 14.216 2.25283H9.78345C9.50708 2.25283 9.28345 2.47671 9.28345 2.75283C9.28345 3.02895 9.50708 3.25283 9.78345 3.25283ZM9.1245 14.3609C9.1245 15.1881 8.45166 15.8609 7.62451 15.8609C6.79736 15.8609 6.12451 15.1881 6.12451 14.3609C6.12451 13.5338 6.79736 12.8609 7.62451 12.8609C8.45166 12.8609 9.1245 13.5338 9.1245 14.3609ZM8.12451 14.3609C8.12451 14.0853 7.90039 13.8609 7.62451 13.8609C7.34863 13.8609 7.12451 14.0853 7.12451 14.3609C7.12451 14.6366 7.34863 14.8609 7.62451 14.8609C7.90039 14.8609 8.12451 14.6366 8.12451 14.3609ZM17.8745 14.3609C17.8745 15.1881 17.2016 15.8609 16.3745 15.8609C15.5473 15.8609 14.8745 15.1881 14.8745 14.3609C14.8745 13.5338 15.5473 12.8609 16.3745 12.8609C17.2016 12.8609 17.8745 13.5338 17.8745 14.3609ZM16.8745 14.3609C16.8745 14.0853 16.6504 13.8609 16.3745 13.8609C16.0986 13.8609 15.8745 14.0853 15.8745 14.3609C15.8745 14.6366 16.0986 14.8609 16.3745 14.8609C16.6504 14.8609 16.8745 14.6366 16.8745 14.3609Z" fill="white"/>
</svg>