<svg xmlns="http://www.w3.org/2000/svg" viewBox="0 0 160 160"><script xmlns=""/><path fill="#0662ba" d="M120.08 115.59a5 5 0 010-10 27.86 27.86 0 100-55.71 23.51 23.51 0 00-2.85.18 5 5 0 01-5-2.6 39.4 39.4 0 00-72.6 7.68 5 5 0 01-4.69 3.61 23.42 23.42 0 00.53 46.84h4.85a5 5 0 010 10h-4.85A33.42 33.42 0 0131.12 49a49.4 49.4 0 0188.28-9.15h.69a37.86 37.86 0 110 75.71z"/><path fill="#0662ba" d="M120.08 115.59a5 5 0 010-10 27.85 27.85 0 10-21-46.16 5 5 0 01-7.54-6.57 37.85 37.85 0 1128.53 62.73zM41.11 158a5 5 0 01-4.76-6.54L42 134a5 5 0 119.52 3.07l-5.63 17.47a5 5 0 01-4.78 3.46zm9.76-29.37a5 5 0 01-4.76-6.54l5.63-17.47a5 5 0 119.52 3.07l-5.63 17.47a5 5 0 01-4.76 3.47zM63.88 158a5 5 0 01-4.76-6.54L64.75 134a5 5 0 119.52 3.07l-5.63 17.47a5 5 0 01-4.76 3.46zm9.76-29.37a5 5 0 01-4.76-6.54l5.63-17.47A5 5 0 1184 107.7l-5.6 17.46a5 5 0 01-4.76 3.47zM87.22 158a5 5 0 01-4.76-6.54L88.09 134a5 5 0 119.52 3.07L92 154.56a5 5 0 01-4.78 3.44zM97 128.63a5 5 0 01-4.76-6.54l5.63-17.47a5 5 0 119.52 3.07l-5.63 17.47a5 5 0 01-4.76 3.47z"/><script xmlns=""/></svg>