<svg xmlns="http://www.w3.org/2000/svg" width="24" height="23" viewBox="0 0 24 23" fill="none">
  <path d="M6.74109 6.28814C6.77065 6.44903 6.85536 6.59458 6.98065 6.69976C7.10593 6.80494 7.26396 6.86316 7.42753 6.86441H8.13939C8.23784 6.86638 8.33556 6.84715 8.42592 6.80802C8.51628 6.76889 8.59717 6.71077 8.66308 6.63762C8.729 6.56447 8.7784 6.47799 8.80795 6.38406C8.83749 6.29013 8.84648 6.19094 8.8343 6.09323C8.67647 4.8826 8.1257 3.75723 7.26651 2.88985C6.6536 2.26546 6.25834 1.46008 6.1394 0.593257C6.11483 0.427089 6.0309 0.275446 5.90315 0.166387C5.77539 0.0573271 5.61245 -0.00176671 5.44449 4.02457e-05H4.7411C4.64306 -0.000552298 4.546 0.0196096 4.4563 0.0592009C4.3666 0.0987921 4.2863 0.156916 4.22066 0.229754C4.15503 0.302592 4.10555 0.388495 4.07548 0.481817C4.04541 0.575139 4.03543 0.673768 4.04619 0.771222C4.20762 2.13681 4.81881 3.40988 5.78347 4.38985C6.29414 4.90633 6.62919 5.5705 6.74109 6.28814ZM11.5462 6.28814C11.5757 6.44903 11.6604 6.59458 11.7857 6.69976C11.911 6.80494 12.069 6.86316 12.2326 6.86441H12.9445C13.0429 6.86638 13.1406 6.84715 13.231 6.80802C13.3213 6.76889 13.4022 6.71077 13.4681 6.63762C13.5341 6.56447 13.5835 6.47799 13.613 6.38406C13.6425 6.29013 13.6515 6.19094 13.6394 6.09323C13.4815 4.8826 12.9308 3.75723 12.0716 2.88985C11.4587 2.26546 11.0634 1.46008 10.9445 0.593257C10.9199 0.427089 10.836 0.275446 10.7082 0.166387C10.5804 0.0573271 10.4175 -0.00176671 10.2496 4.02457e-05H9.54616C9.4464 0.00200643 9.34826 0.0256999 9.25859 0.0694706C9.16891 0.113241 9.08986 0.176037 9.02694 0.253482C8.96401 0.330927 8.91873 0.421159 8.89424 0.517894C8.86976 0.614628 8.86665 0.715539 8.88515 0.813595C9.0439 2.15893 9.63926 3.41515 10.5801 4.38985C11.0938 4.90518 11.4319 5.56948 11.5462 6.28814Z" fill="black"/>
  <path d="M18.1949 8.3178H2.40685C2.22343 8.31209 2.04074 8.34345 1.86971 8.40999C1.69869 8.47654 1.54284 8.5769 1.41151 8.70507C1.28017 8.83324 1.17604 8.98659 1.10535 9.15594C1.03465 9.32529 0.99885 9.50716 1.00008 9.69067V17.9279C0.996703 18.4742 1.10181 19.0157 1.30929 19.521C1.51678 20.0263 1.82253 20.4854 2.2088 20.8717C2.59507 21.258 3.05418 21.5637 3.55951 21.7712C4.06485 21.9787 4.60634 22.0838 5.1526 22.0804H13.3898C14.4815 22.0782 15.5278 21.6435 16.2997 20.8716C17.0716 20.0997 17.5062 19.0534 17.5085 17.9618H18.1949C19.4693 17.9618 20.6915 17.4556 21.5926 16.5544C22.4937 15.6533 23 14.4311 23 13.1568C23 11.8824 22.4937 10.6602 21.5926 9.75906C20.6915 8.85794 19.4693 8.3517 18.1949 8.3517V8.3178ZM18.1949 15.1822H17.5085V11.0635H18.1949C18.7411 11.0635 19.2649 11.2805 19.6511 11.6667C20.0373 12.0529 20.2542 12.5767 20.2542 13.1229C20.2542 13.669 20.0373 14.1928 19.6511 14.579C19.2649 14.9652 18.7411 15.1822 18.1949 15.1822Z" stroke="black"/>
</svg>