<svg xmlns="http://www.w3.org/2000/svg" width="24" height="22" viewBox="0 0 24 22" fill="none">
  <path d="M2.18668 6.41273V9.16342C2.18668 9.4066 2.28053 9.63981 2.44756 9.81177C2.6146 9.98372 2.84116 10.0803 3.07739 10.0803C3.31362 10.0803 3.54017 9.98372 3.70721 9.81177C3.87425 9.63981 3.96809 9.4066 3.96809 9.16342V6.41273C3.97212 6.36698 3.97212 6.32094 3.96809 6.27519C4.68813 6.06193 5.30911 5.58813 5.71676 4.94099C6.1244 4.29385 6.29128 3.51693 6.18667 2.7532C6.08206 1.98947 5.713 1.29033 5.14743 0.78445C4.58185 0.278573 3.85781 0 3.10856 0C2.35931 0 1.63527 0.278573 1.0697 0.78445C0.504119 1.29033 0.135065 1.98947 0.0304551 2.7532C-0.0741549 3.51693 0.0927186 4.29385 0.500364 4.94099C0.908009 5.58813 1.52899 6.06193 2.24903 6.27519C2.22369 6.31869 2.20279 6.36479 2.18668 6.41273ZM1.74133 3.20358C1.74133 2.83882 1.88209 2.48899 2.13265 2.23106C2.38321 1.97314 2.72304 1.82824 3.07739 1.82824C3.43173 1.82824 3.77156 1.97314 4.02212 2.23106C4.27268 2.48899 4.41344 2.83882 4.41344 3.20358C4.41344 3.56956 4.27221 3.92055 4.02082 4.17934C3.76942 4.43813 3.42846 4.58351 3.07293 4.58351C2.71741 4.58351 2.37644 4.43813 2.12505 4.17934C1.87366 3.92055 1.73242 3.56956 1.73242 3.20358H1.74133ZM24 11.4557C23.999 10.8626 23.8378 10.2814 23.5345 9.77715C23.2313 9.27285 22.7978 8.86525 22.2826 8.59982C21.7673 8.3344 21.1906 8.2216 20.6167 8.27403C20.0428 8.32645 19.4943 8.54203 19.0325 8.89671C18.5708 9.25138 18.2138 9.73119 18.0015 10.2826C17.7893 10.834 17.7301 11.4352 17.8305 12.0192C17.9309 12.6033 18.187 13.1471 18.5703 13.5899C18.9535 14.0328 19.4487 14.3573 20.0007 14.5273C19.9966 14.573 19.9966 14.6191 20.0007 14.6648V17.4155C20.0007 17.6587 20.0946 17.8919 20.2616 18.0639C20.4287 18.2358 20.6552 18.3324 20.8914 18.3324C21.1277 18.3324 21.3542 18.2358 21.5213 18.0639C21.6883 17.8919 21.7821 17.6587 21.7821 17.4155V14.6648C21.7862 14.6191 21.7862 14.573 21.7821 14.5273C22.4225 14.3271 22.9836 13.9206 23.3828 13.3677C23.782 12.8148 23.9984 12.1446 24 11.4557ZM20.8914 12.831C20.5371 12.831 20.1973 12.6861 19.9467 12.4282C19.6962 12.1703 19.5554 11.8204 19.5554 11.4557C19.5554 11.0909 19.6962 10.7411 19.9467 10.4831C20.1973 10.2252 20.5371 10.0803 20.8914 10.0803C21.2458 10.0803 21.5856 10.2252 21.8362 10.4831C22.0867 10.7411 22.2275 11.0909 22.2275 11.4557C22.2275 11.8204 22.0867 12.1703 21.8362 12.4282C21.5856 12.6861 21.2458 12.831 20.8914 12.831ZM20.8914 20.1662H15.5472C15.0748 20.1662 14.6217 19.973 14.2876 19.6291C13.9535 19.2852 13.7658 18.8188 13.7658 18.3324V15.5817C13.7658 14.609 13.3905 13.6761 12.7223 12.9883C12.0541 12.3005 11.1479 11.9141 10.203 11.9141H3.07739C2.84116 11.9141 2.6146 12.0107 2.44756 12.1827C2.28053 12.3546 2.18668 12.5878 2.18668 12.831C2.18668 13.0742 2.28053 13.3074 2.44756 13.4794C2.6146 13.6513 2.84116 13.7479 3.07739 13.7479H10.203C10.6755 13.7479 11.1286 13.9411 11.4627 14.285C11.7967 14.6289 11.9844 15.0954 11.9844 15.5817V18.3324C11.9844 19.3051 12.3598 20.238 13.0279 20.9258C13.6961 21.6136 14.6023 22 15.5472 22H20.8914C21.1277 22 21.3542 21.9034 21.5213 21.7314C21.6883 21.5595 21.7821 21.3263 21.7821 21.0831C21.7821 20.8399 21.6883 20.6067 21.5213 20.4348C21.3542 20.2628 21.1277 20.1662 20.8914 20.1662Z" fill="black"/>
</svg>