<svg xmlns="http://www.w3.org/2000/svg" width="12" height="11" viewBox="0 0 12 11" fill="none">
  <path d="M1.09334 3.20636V4.58171C1.09334 4.7033 1.14026 4.81991 1.22378 4.90588C1.3073 4.99186 1.42058 5.04016 1.53869 5.04016C1.65681 5.04016 1.77008 4.99186 1.8536 4.90588C1.93712 4.81991 1.98404 4.7033 1.98404 4.58171V3.20636C1.98606 3.18349 1.98606 3.16047 1.98404 3.1376C2.34406 3.03096 2.65456 2.79406 2.85838 2.4705C3.0622 2.14693 3.14564 1.75846 3.09333 1.3766C3.04103 0.994733 2.8565 0.645164 2.57371 0.392225C2.29093 0.139287 1.92891 0 1.55428 0C1.17966 0 0.817636 0.139287 0.534848 0.392225C0.252059 0.645164 0.0675325 0.994733 0.0152276 1.3766C-0.0370774 1.75846 0.0463593 2.14693 0.250182 2.4705C0.454005 2.79406 0.764497 3.03096 1.12452 3.1376C1.11184 3.15935 1.1014 3.18239 1.09334 3.20636ZM0.870666 1.60179C0.870666 1.41941 0.941047 1.2445 1.06633 1.11553C1.19161 0.986569 1.36152 0.914118 1.53869 0.914118C1.71587 0.914118 1.88578 0.986569 2.01106 1.11553C2.13634 1.2445 2.20672 1.41941 2.20672 1.60179C2.20672 1.78478 2.1361 1.96028 2.01041 2.08967C1.88471 2.21906 1.71423 2.29176 1.53647 2.29176C1.3587 2.29176 1.18822 2.21906 1.06253 2.08967C0.936828 1.96028 0.866212 1.78478 0.866212 1.60179H0.870666ZM12 5.72783C11.9995 5.43128 11.9189 5.14072 11.7673 4.88857C11.6156 4.63643 11.3989 4.43262 11.1413 4.29991C10.8837 4.1672 10.5953 4.1108 10.3083 4.13701C10.0214 4.16323 9.74716 4.27102 9.51627 4.44835C9.28538 4.62569 9.1069 4.86559 9.00077 5.14129C8.89464 5.41698 8.86503 5.71761 8.91524 6.00962C8.96545 6.30163 9.09352 6.57353 9.28513 6.79497C9.47674 7.01641 9.72437 7.17867 10.0004 7.26364C9.99828 7.28651 9.99828 7.30953 10.0004 7.33241V8.70775C10.0004 8.82934 10.0473 8.94595 10.1308 9.03193C10.2143 9.1179 10.3276 9.1662 10.4457 9.1662C10.5638 9.1662 10.6771 9.1179 10.7606 9.03193C10.8442 8.94595 10.8911 8.82934 10.8911 8.70775V7.33241C10.8931 7.30953 10.8931 7.28651 10.8911 7.26364C11.2113 7.16354 11.4918 6.96032 11.6914 6.68386C11.891 6.4074 11.9992 6.0723 12 5.72783ZM10.4457 6.41551C10.2686 6.41551 10.0986 6.34306 9.97336 6.21409C9.84808 6.08513 9.7777 5.91022 9.7777 5.72783C9.7777 5.54545 9.84808 5.37054 9.97336 5.24157C10.0986 5.11261 10.2686 5.04016 10.4457 5.04016C10.6229 5.04016 10.7928 5.11261 10.9181 5.24157C11.0434 5.37054 11.1138 5.54545 11.1138 5.72783C11.1138 5.91022 11.0434 6.08513 10.9181 6.21409C10.7928 6.34306 10.6229 6.41551 10.4457 6.41551ZM10.4457 10.0831H7.77361C7.53738 10.0831 7.31083 9.9865 7.14379 9.81455C6.97675 9.6426 6.88291 9.40938 6.88291 9.1662V7.79086C6.88291 7.3045 6.69523 6.83807 6.36115 6.49417C6.02707 6.15026 5.57396 5.95706 5.10151 5.95706H1.53869C1.42058 5.95706 1.3073 6.00536 1.22378 6.09133C1.14026 6.17731 1.09334 6.29392 1.09334 6.41551C1.09334 6.5371 1.14026 6.65371 1.22378 6.73968C1.3073 6.82566 1.42058 6.87396 1.53869 6.87396H5.10151C5.33773 6.87396 5.56429 6.97056 5.73133 7.14251C5.89837 7.31446 5.99221 7.54768 5.99221 7.79086V9.1662C5.99221 9.65256 6.17989 10.119 6.51397 10.4629C6.84805 10.8068 7.30116 11 7.77361 11H10.4457C10.5638 11 10.6771 10.9517 10.7606 10.8657C10.8442 10.7797 10.8911 10.6631 10.8911 10.5416C10.8911 10.42 10.8442 10.3034 10.7606 10.2174C10.6771 10.1314 10.5638 10.0831 10.4457 10.0831Z" fill="#F8991D"/>
</svg>