<svg xmlns="http://www.w3.org/2000/svg" width="12" height="12" viewBox="0 0 12 12" fill="none">
  <path d="M1.09334 3.70649V5.08183C1.09334 5.20342 1.14026 5.32003 1.22378 5.40601C1.3073 5.49198 1.42058 5.54028 1.53869 5.54028C1.65681 5.54028 1.77008 5.49198 1.8536 5.40601C1.93712 5.32003 1.98404 5.20342 1.98404 5.08183V3.70649C1.98606 3.68361 1.98606 3.66059 1.98404 3.63772C2.34406 3.53109 2.65456 3.29419 2.85838 2.97062C3.0622 2.64705 3.14564 2.25858 3.09333 1.87672C3.04103 1.49485 2.8565 1.14529 2.57371 0.892347C2.29093 0.639409 1.92891 0.500122 1.55428 0.500122C1.17966 0.500122 0.817636 0.639409 0.534848 0.892347C0.252059 1.14529 0.0675325 1.49485 0.0152276 1.87672C-0.0370774 2.25858 0.0463593 2.64705 0.250182 2.97062C0.454005 3.29419 0.764497 3.53109 1.12452 3.63772C1.11184 3.65947 1.1014 3.68252 1.09334 3.70649ZM0.870666 2.10191C0.870666 1.91953 0.941047 1.74462 1.06633 1.61565C1.19161 1.48669 1.36152 1.41424 1.53869 1.41424C1.71587 1.41424 1.88578 1.48669 2.01106 1.61565C2.13634 1.74462 2.20672 1.91953 2.20672 2.10191C2.20672 2.2849 2.1361 2.4604 2.01041 2.58979C1.88471 2.71919 1.71423 2.79188 1.53647 2.79188C1.3587 2.79188 1.18822 2.71919 1.06253 2.58979C0.936828 2.4604 0.866212 2.2849 0.866212 2.10191H0.870666ZM12 6.22796C11.9995 5.93141 11.9189 5.64084 11.7673 5.3887C11.6156 5.13655 11.3989 4.93274 11.1413 4.80003C10.8837 4.66732 10.5953 4.61092 10.3083 4.63714C10.0214 4.66335 9.74716 4.77114 9.51627 4.94847C9.28538 5.12581 9.1069 5.36572 9.00077 5.64141C8.89464 5.9171 8.86503 6.21773 8.91524 6.50974C8.96545 6.80175 9.09352 7.07365 9.28513 7.29509C9.47674 7.51653 9.72437 7.67879 10.0004 7.76376C9.99828 7.78663 9.99828 7.80966 10.0004 7.83253V9.20788C10.0004 9.32946 10.0473 9.44607 10.1308 9.53205C10.2143 9.61802 10.3276 9.66633 10.4457 9.66633C10.5638 9.66633 10.6771 9.61802 10.7606 9.53205C10.8442 9.44607 10.8911 9.32946 10.8911 9.20788V7.83253C10.8931 7.80965 10.8931 7.78664 10.8911 7.76376C11.2113 7.66366 11.4918 7.46044 11.6914 7.18398C11.891 6.90752 11.9992 6.57242 12 6.22796ZM10.4457 6.91563C10.2686 6.91563 10.0986 6.84318 9.97336 6.71421C9.84808 6.58525 9.7777 6.41034 9.7777 6.22796C9.7777 6.04557 9.84808 5.87066 9.97336 5.7417C10.0986 5.61273 10.2686 5.54028 10.4457 5.54028C10.6229 5.54028 10.7928 5.61273 10.9181 5.7417C11.0434 5.87066 11.1138 6.04557 11.1138 6.22796C11.1138 6.41034 11.0434 6.58525 10.9181 6.71421C10.7928 6.84318 10.6229 6.91563 10.4457 6.91563ZM10.4457 10.5832H7.77361C7.53738 10.5832 7.31083 10.4866 7.14379 10.3147C6.97675 10.1427 6.88291 9.9095 6.88291 9.66633V8.29098C6.88291 7.80462 6.69523 7.33819 6.36115 6.99429C6.02707 6.65038 5.57396 6.45718 5.10151 6.45718H1.53869C1.42058 6.45718 1.3073 6.50548 1.22378 6.59146C1.14026 6.67743 1.09334 6.79404 1.09334 6.91563C1.09334 7.03722 1.14026 7.15383 1.22378 7.2398C1.3073 7.32578 1.42058 7.37408 1.53869 7.37408H5.10151C5.33773 7.37408 5.56429 7.47068 5.73133 7.64263C5.89837 7.81458 5.99221 8.0478 5.99221 8.29098V9.66633C5.99221 10.1527 6.17989 10.6191 6.51397 10.963C6.84805 11.3069 7.30116 11.5001 7.77361 11.5001H10.4457C10.5638 11.5001 10.6771 11.4518 10.7606 11.3658C10.8442 11.2799 10.8911 11.1633 10.8911 11.0417C10.8911 10.9201 10.8442 10.8035 10.7606 10.7175C10.6771 10.6315 10.5638 10.5832 10.4457 10.5832Z" fill="white"/>
</svg>