<svg xmlns="http://www.w3.org/2000/svg" width="12" height="13" viewBox="0 0 12 13" fill="none">
  <path fill-rule="evenodd" clip-rule="evenodd" d="M11.7735 0.920051C11.8686 1.06894 11.8473 1.26388 11.7224 1.38877L5.33388 7.77734C5.217 7.89419 5.03758 7.92114 4.89156 7.84382L0.366332 5.44814C0.234924 5.37857 0.156776 5.23815 0.166892 5.08983C0.177008 4.94147 0.273491 4.81299 0.413127 4.76191L11.3269 0.76905C11.4928 0.708364 11.6785 0.771164 11.7735 0.920051ZM1.46599 5.17841L4.99809 7.04834L9.98459 2.06184L1.46599 5.17841Z" fill="white"/>
  <path fill-rule="evenodd" clip-rule="evenodd" d="M11.6589 0.805224C11.8078 0.900252 11.8706 1.08601 11.8099 1.25189L7.8171 12.1656C7.76601 12.3053 7.63753 12.4018 7.48917 12.4119C7.34085 12.422 7.20044 12.3439 7.13087 12.2124L4.73516 7.68722C4.65784 7.54116 4.68483 7.36178 4.80168 7.2449L11.1902 0.85636C11.3151 0.731465 11.5101 0.710198 11.6589 0.805224ZM10.5172 2.59418L5.53067 7.58069L7.4006 11.1128L10.5172 2.59418Z" fill="white"/>
</svg>