<svg xmlns="http://www.w3.org/2000/svg" width="36" height="37" viewBox="0 0 36 37" fill="none">
  <g clip-path="url(#clip0_6465_166)">
    <path fill-rule="evenodd" clip-rule="evenodd" d="M18 12.0806C14.6863 12.0806 12 14.7669 12 18.0806C12 21.3943 14.6863 24.0806 18 24.0806C21.3137 24.0806 24 21.3943 24 18.0806C24 14.7669 21.3137 12.0806 18 12.0806ZM9 18.0806C9 13.11 13.0294 9.08057 18 9.08057C22.9706 9.08057 27 13.11 27 18.0806C27 23.0511 22.9706 27.0806 18 27.0806C13.0294 27.0806 9 23.0511 9 18.0806Z" fill="#FF9A15"/>
    <path fill-rule="evenodd" clip-rule="evenodd" d="M18 0.0805664C18.8284 0.0805664 19.5 0.752139 19.5 1.58057V4.58057C19.5 5.40899 18.8284 6.08057 18 6.08057C17.1716 6.08057 16.5 5.40899 16.5 4.58057V1.58057C16.5 0.752139 17.1716 0.0805664 18 0.0805664Z" fill="#FF9A15"/>
    <path fill-rule="evenodd" clip-rule="evenodd" d="M18 30.0806C18.8284 30.0806 19.5 30.7521 19.5 31.5806V34.5806C19.5 35.409 18.8284 36.0806 18 36.0806C17.1716 36.0806 16.5 35.409 16.5 34.5806V31.5806C16.5 30.7521 17.1716 30.0806 18 30.0806Z" fill="#FF9A15"/>
    <path fill-rule="evenodd" clip-rule="evenodd" d="M5.26942 5.34998C5.8552 4.7642 6.80495 4.7642 7.39074 5.34998L9.52074 7.47998C10.1065 8.06577 10.1065 9.01552 9.52074 9.60131C8.93495 10.1871 7.9852 10.1871 7.39942 9.60131L5.26942 7.4713C4.68363 6.88552 4.68363 5.93577 5.26942 5.34998Z" fill="#FF9A15"/>
    <path fill-rule="evenodd" clip-rule="evenodd" d="M26.4794 26.5599C27.0652 25.9742 28.0149 25.9742 28.6007 26.5599L30.7307 28.6899C31.3165 29.2757 31.3165 30.2255 30.7307 30.8113C30.1449 31.3971 29.1952 31.3971 28.6094 30.8113L26.4794 28.6813C25.8936 28.0955 25.8936 27.1457 26.4794 26.5599Z" fill="#FF9A15"/>
    <path fill-rule="evenodd" clip-rule="evenodd" d="M0 18.0806C0 17.2521 0.671573 16.5806 1.5 16.5806H4.5C5.32843 16.5806 6 17.2521 6 18.0806C6 18.909 5.32843 19.5806 4.5 19.5806H1.5C0.671573 19.5806 0 18.909 0 18.0806Z" fill="#FF9A15"/>
    <path fill-rule="evenodd" clip-rule="evenodd" d="M30 18.0806C30 17.2521 30.6716 16.5806 31.5 16.5806H34.5C35.3284 16.5806 36 17.2521 36 18.0806C36 18.909 35.3284 19.5806 34.5 19.5806H31.5C30.6716 19.5806 30 18.909 30 18.0806Z" fill="#FF9A15"/>
    <path fill-rule="evenodd" clip-rule="evenodd" d="M9.52074 26.5599C10.1065 27.1457 10.1065 28.0955 9.52074 28.6813L7.39074 30.8113C6.80495 31.3971 5.8552 31.3971 5.26942 30.8113C4.68363 30.2255 4.68363 29.2757 5.26942 28.6899L7.39942 26.5599C7.9852 25.9742 8.93495 25.9742 9.52074 26.5599Z" fill="#FF9A15"/>
    <path fill-rule="evenodd" clip-rule="evenodd" d="M30.7307 5.34998C31.3165 5.93577 31.3165 6.88552 30.7307 7.4713L28.6007 9.60131C28.0149 10.1871 27.0652 10.1871 26.4794 9.60131C25.8936 9.01552 25.8936 8.06577 26.4794 7.47998L28.6094 5.34998C29.1952 4.7642 30.1449 4.7642 30.7307 5.34998Z" fill="#FF9A15"/>
  </g>
  <defs>
    <clipPath id="clip0_6465_166">
      <rect width="36" height="36" fill="white" transform="translate(0 0.0805664)"/>
    </clipPath>
  </defs>
</svg>