<svg xmlns="http://www.w3.org/2000/svg" width="20" height="22" viewBox="0 0 20 22" fill="none">
  <path d="M0.0966797 12.0968C0.0966797 17.5806 4.54829 22 9.99991 22C15.4515 22 19.9031 17.5484 19.9031 12.0968C19.9031 9.3871 18.8064 6.90323 16.9999 5.09678L17.7741 4.32258L18.1289 4.67742C18.2902 4.83871 18.4838 4.90323 18.6773 4.90323C18.8709 4.90323 19.0644 4.83871 19.2257 4.67742C19.516 4.3871 19.516 3.87097 19.2257 3.58065L17.4193 1.77419C17.1289 1.48387 16.6128 1.48387 16.3225 1.77419C16.0322 2.06452 16.0322 2.58065 16.3225 2.87097L16.6773 3.22581L15.8064 4.09677C14.3547 3.03226 12.6128 2.35484 10.7418 2.22581V1.54839H12.4515C12.8709 1.54839 13.2257 1.19355 13.2257 0.774193C13.2257 0.354839 12.8709 0 12.4515 0H7.387C6.96765 0 6.61281 0.354839 6.61281 0.774193C6.61281 1.19355 6.96765 1.54839 7.387 1.54839H9.22571V2.22581C4.12894 2.6129 0.0966797 6.87097 0.0966797 12.0968ZM9.99991 20.4516C5.387 20.4516 1.64507 16.7097 1.64507 12.0968C1.64507 7.48387 5.387 3.74194 9.99991 3.74194C14.6128 3.74194 18.3547 7.48387 18.3547 12.0968C18.3547 16.7097 14.6128 20.4516 9.99991 20.4516Z" fill="black"/>
  <path d="M13.3224 11.1937H10.774V7.1614C10.774 6.74205 10.4191 6.38721 9.99978 6.38721C9.58043 6.38721 9.22559 6.74205 9.22559 7.1614V11.9679C9.22559 12.3872 9.58043 12.742 9.99978 12.742H13.3224C13.7417 12.742 14.0966 12.3872 14.0966 11.9679C14.0966 11.5485 13.7417 11.1937 13.3224 11.1937Z" fill="black"/>
</svg>