<svg xmlns="http://www.w3.org/2000/svg" width="14" height="14" viewBox="0 0 14 14" fill="none">
  <path d="M13.5109 5.65602C13.3143 5.41987 13.0681 5.22978 12.7899 5.09915C12.5118 4.96852 12.2083 4.90055 11.901 4.90002H8.70896L9.10096 3.89902C9.26401 3.46074 9.31831 2.98945 9.2592 2.52557C9.20009 2.06169 9.02934 1.61908 8.76159 1.23569C8.49384 0.852302 8.13708 0.539588 7.72192 0.324371C7.30676 0.109154 6.84559 -0.00214159 6.37796 3.12138e-05C6.24331 0.000312166 6.1116 0.0394238 5.99861 0.112677C5.88563 0.18593 5.79617 0.290215 5.74096 0.41303L3.74597 4.90002H2.10097C1.54402 4.90002 1.00988 5.12127 0.616051 5.51509C0.222226 5.90892 0.000976563 6.44306 0.000976562 7.00002V11.9C0.000976563 12.457 0.222226 12.9911 0.616051 13.3849C1.00988 13.7788 1.54402 14 2.10097 14H11.012C11.5032 13.9998 11.9789 13.8274 12.3562 13.5128C12.7335 13.1982 12.9885 12.7612 13.0769 12.278L13.9659 7.37802C14.0209 7.07518 14.0087 6.76396 13.93 6.46639C13.8514 6.16882 13.7083 5.89217 13.5109 5.65602ZM3.50097 12.6H2.10097C1.91532 12.6 1.73727 12.5263 1.606 12.395C1.47472 12.2637 1.40097 12.0857 1.40097 11.9V7.00002C1.40097 6.81436 1.47472 6.63632 1.606 6.50504C1.73727 6.37377 1.91532 6.30002 2.10097 6.30002H3.50097V12.6ZM12.6009 7.12602L11.712 12.026C11.6821 12.1891 11.5954 12.3363 11.4672 12.4414C11.339 12.5465 11.1777 12.6027 11.012 12.6H4.90097V5.74702L6.80496 1.46303C7.00095 1.52017 7.18297 1.61731 7.33952 1.74834C7.49607 1.87936 7.62377 2.04141 7.71454 2.22427C7.80531 2.40713 7.85719 2.60682 7.8669 2.81074C7.87661 3.01465 7.84394 3.21837 7.77096 3.40902L7.39996 4.41002C7.32091 4.6216 7.29422 4.84916 7.32217 5.07329C7.35013 5.29742 7.43189 5.51146 7.56049 5.69714C7.68909 5.88282 7.86071 6.03462 8.06069 6.1396C8.26068 6.24459 8.48309 6.29962 8.70896 6.30002H11.901C12.0038 6.29985 12.1054 6.32234 12.1986 6.3659C12.2917 6.40945 12.3741 6.473 12.4399 6.55202C12.5074 6.62994 12.5568 6.7218 12.5846 6.82102C12.6124 6.92024 12.618 7.02439 12.6009 7.12602Z" fill="#F8991D"/>
</svg>