<svg xmlns="http://www.w3.org/2000/svg" width="16" height="24" viewBox="0 0 16 24" fill="none">
  <path d="M9.5 20H6.5C6.36739 20 6.24021 20.0527 6.14645 20.1464C6.05268 20.2402 6 20.3674 6 20.5C6 20.6326 6.05268 20.7598 6.14645 20.8536C6.24021 20.9473 6.36739 21 6.5 21H9.5C9.63261 21 9.75979 20.9473 9.85355 20.8536C9.94732 20.7598 10 20.6326 10 20.5C10 20.3674 9.94732 20.2402 9.85355 20.1464C9.75979 20.0527 9.63261 20 9.5 20ZM14.5 0H1.5C1.10218 0 0.720644 0.158035 0.43934 0.43934C0.158035 0.720644 0 1.10218 0 1.5V22.5C0 22.8978 0.158035 23.2794 0.43934 23.5607C0.720644 23.842 1.10218 24 1.5 24H14.5C14.8978 24 15.2794 23.842 15.5607 23.5607C15.842 23.2794 16 22.8978 16 22.5V1.5C16 1.10218 15.842 0.720644 15.5607 0.43934C15.2794 0.158035 14.8978 0 14.5 0ZM15 22.5C15 22.6326 14.9473 22.7598 14.8536 22.8536C14.7598 22.9473 14.6326 23 14.5 23H1.5C1.36739 23 1.24021 22.9473 1.14645 22.8536C1.05268 22.7598 1 22.6326 1 22.5V1.5C1 1.36739 1.05268 1.24021 1.14645 1.14645C1.24021 1.05268 1.36739 1 1.5 1H14.5C14.6326 1 14.7598 1.05268 14.8536 1.14645C14.9473 1.24021 15 1.36739 15 1.5V22.5ZM8 6C6.62568 5.99722 5.29207 6.46632 4.22213 7.32887C3.1522 8.19142 2.4108 9.39513 2.12191 10.7387C1.83302 12.0824 2.01414 13.4844 2.635 14.7105C3.25586 15.9366 4.27881 16.9124 5.53281 17.4747C6.78682 18.0371 8.19587 18.1519 9.52436 17.7999C10.8529 17.448 12.0203 16.6506 12.8314 15.5412C13.6425 14.4318 14.0482 13.0775 13.9806 11.7049C13.913 10.3322 13.3762 9.02436 12.46 8C11.8986 7.37231 11.2113 6.86983 10.4429 6.52525C9.67448 6.18067 8.84214 6.0017 8 6ZM10.24 7.55C10.4264 7.64183 10.6067 7.74537 10.78 7.86L11 8L11.07 8.05L11.26 8.22C11.0121 8.34938 10.7547 8.4597 10.49 8.55C10.42 8.35 10.35 8.16 10.27 7.97V7.89C10.1919 7.71902 10.1051 7.55213 10.01 7.39L10.24 7.55ZM6.8 8.11V8.05C6.87183 7.91514 6.95198 7.78489 7.04 7.66L7.19 7.46L7.31 7.33C7.39121 7.24938 7.48187 7.17886 7.58 7.12H7.65C7.74543 7.06371 7.8542 7.03402 7.965 7.03402C8.0758 7.03402 8.18457 7.06371 8.28 7.12H8.35C8.44813 7.17886 8.53879 7.24938 8.62 7.33L8.74 7.46L8.89 7.66C8.978 7.78491 9.05815 7.91516 9.13 8.05V8.11C9.24967 8.34607 9.35324 8.58996 9.44 8.84C8.44911 9.03088 7.43089 9.03088 6.44 8.84C6.5462 8.58836 6.66983 8.34443 6.81 8.11H6.8ZM4 9C4.3795 9.22511 4.78173 9.40947 5.2 9.55C5.14 9.84 5.09 10.14 5.05 10.46V10.53C5.05 10.85 4.99 11.18 4.97 11.53H3C3.09309 10.6105 3.43924 9.7347 4 9ZM4 15C3.44433 14.2738 3.09846 13.4091 3 12.5H5C5 12.84 5 13.17 5.08 13.5V13.57C5.08 13.88 5.17 14.19 5.23 14.48C4.80266 14.6091 4.39032 14.7834 4 15ZM6 16.55L5.79 16.45C5.60364 16.3582 5.42327 16.2546 5.25 16.14L4.95 15.92L4.76 15.75C5.00794 15.6207 5.26534 15.5103 5.53 15.42C5.6 15.62 5.67 15.81 5.75 16V16.08C5.8281 16.251 5.91488 16.4179 6.01 16.58L6 16.55ZM5.8 7.92V8C5.72 8.18 5.64 8.37 5.58 8.58C5.31526 8.48988 5.05784 8.37956 4.81 8.25L5 8.08L5.31 7.86C5.48005 7.74576 5.65706 7.64222 5.84 7.55L5.96 7.49L6 7.42C5.91507 7.58274 5.83831 7.74961 5.77 7.92H5.8ZM9.23 15.92V15.98C9.15817 16.1149 9.07802 16.2451 8.99 16.37L8.84 16.57L8.72 16.7C8.63879 16.7806 8.54813 16.8511 8.45 16.91H8.38C8.28457 16.9663 8.1758 16.996 8.065 16.996C7.9542 16.996 7.84543 16.9663 7.75 16.91H7.68C7.58187 16.8511 7.49121 16.7806 7.41 16.7L7.29 16.57L7.14 16.37C7.052 16.2451 6.97185 16.1148 6.9 15.98V15.92C6.78033 15.6839 6.67676 15.44 6.59 15.19C7.58089 14.9991 8.59911 14.9991 9.59 15.19C9.47287 15.4322 9.33922 15.6661 9.19 15.89L9.23 15.92ZM9.94 13.41C9.94 13.69 9.86 13.95 9.81 14.21C8.64164 13.9756 7.43836 13.9756 6.27 14.21C6.22 13.96 6.17 13.69 6.14 13.42C6.04667 13.14 6 12.8333 6 12.5H10C10 12.8333 9.97 13.1267 9.91 13.38L9.94 13.41ZM6 11.5C6 11.2 6.02333 10.91 6.07 10.63C6.07 10.35 6.15 10.09 6.2 9.84C6.47 9.9 6.75 9.95 7.03 9.98C7.35261 10.0067 7.67656 10.0134 8 10C8.31425 9.99886 8.62815 9.97882 8.94 9.94C9.22 9.94 9.5 9.86 9.77 9.81C9.82 10.06 9.87 10.33 9.9 10.6C9.93333 10.88 9.95667 11.17 9.97 11.47L6 11.5ZM11.06 15.91L10.75 16.13C10.5799 16.2442 10.4029 16.3478 10.22 16.44L10.1 16.5L9.95 16.57C10.0451 16.4079 10.1319 16.241 10.21 16.07V15.99C10.29 15.81 10.37 15.62 10.43 15.41C10.6947 15.5001 10.9522 15.6104 11.2 15.74L11.06 15.91ZM12 15C11.6205 14.7749 11.2183 14.5905 10.8 14.45C10.86 14.16 10.91 13.86 10.95 13.54V13.47C10.95 13.15 11.01 12.82 11.03 12.47H13.03C12.9282 13.3926 12.5715 14.2686 12 15ZM11 11.5C11 11.16 11 10.83 10.92 10.5V10.43C10.92 10.12 10.83 9.81 10.77 9.52C11.1973 9.39095 11.6097 9.21663 12 9C12.5591 9.73187 12.9051 10.6039 13 11.52L11 11.5ZM4.5 4H11.5C11.6326 4 11.7598 3.94732 11.8536 3.85355C11.9473 3.75979 12 3.63261 12 3.5C12 3.36739 11.9473 3.24021 11.8536 3.14645C11.7598 3.05268 11.6326 3 11.5 3H4.5C4.36739 3 4.24021 3.05268 4.14645 3.14645C4.05268 3.24021 4 3.36739 4 3.5C4 3.63261 4.05268 3.75979 4.14645 3.85355C4.24021 3.94732 4.36739 4 4.5 4Z" fill="black"/>
</svg>