
<svg width="31" height="30" viewBox="0 0 31 30" fill="none" xmlns="http://www.w3.org/2000/svg">
<path d="M0.00195312 4C0.00195312 1.79086 1.79281 0 4.00195 0H26.002C28.2111 0 30.002 1.79086 30.002 4V26C30.002 28.2091 28.2111 30 26.002 30H4.00195C1.79281 30 0.00195312 28.2091 0.00195312 26V4Z" fill="#4267B2"/>
<path d="M21.8595 9.12549L21.586 9.69815C21.586 9.69815 20.289 12.3966 18.7098 14.0966C18.2021 14.6467 17.9444 14.8123 17.664 14.8123C17.4385 14.8123 17.3343 14.6282 17.3343 14.1326V9H12.424V9.39318C12.424 9.96584 13.3213 10.0954 13.3213 11.6468V14.8475C13.3213 15.4922 13.2853 15.7416 12.9745 15.7416C12.149 15.7416 10.1889 12.9703 9.08824 9.82364L8.81472 9H5.60701C5.25841 9 5.00195 9.23246 5.00195 9.57267C5.00195 10.1988 5.75374 13.0948 8.70368 16.9764C10.6826 19.5872 13.2853 21 15.6302 21C17.0605 21 17.4075 20.7675 17.4075 20.1782V18.175C17.4075 17.6738 17.6094 17.4593 17.9034 17.4593C18.2331 17.4593 18.8143 17.5622 20.1745 18.8724C20.1761 18.8724 22.3551 21 22.3551 21H25.4707C25.7458 21 26.002 20.8755 26.002 20.4284C26.002 19.8372 25.2142 18.7826 24.0044 17.5311C23.5103 16.8875 22.7037 16.1893 22.4472 15.8668C22.0816 15.4919 22.1908 15.2777 22.4472 14.8843C22.4472 14.8843 25.2142 11.0741 25.4893 9.82338C25.5817 9.37646 25.3798 9.12523 24.9031 9.12523L21.8595 9.12549Z" fill="white"/>
</svg>
